<?xml version="1.0" encoding="UTF-8"?>
<svg width="237px" height="17px" viewBox="0 0 237 17" version="1.1" xmlns="http://www.w3.org/2000/svg" xmlns:xlink="http://www.w3.org/1999/xlink">
    <!-- Generator: Sketch 51.1 (57501) - http://www.bohemiancoding.com/sketch -->
    <title>Alt Logo</title>
    <desc>Created with Sketch.</desc>
    <defs></defs>
    <g id="V2---Desktop" stroke="none" stroke-width="1" fill="none" fill-rule="evenodd">
        <g id="Landing" transform="translate(-601.000000, -39.000000)" fill="#FFFFFF">
            <g id="Group" transform="translate(601.000000, 39.000000)">
                <path d="M0.933135421,0.83023493 L5.42585276,0.83023493 C5.60798995,0.83023493 5.72941475,0.982015921 5.72941475,1.13379691 L5.72941475,5.32295227 C5.72941475,5.71758285 6.24547012,5.89972004 6.4883197,5.56580186 L10.0096387,0.951659723 C10.0703511,0.860591128 10.1614197,0.83023493 10.2524883,0.83023493 L15.564823,0.83023493 C15.7469602,0.83023493 15.868385,1.04272832 15.7469602,1.19450931 L10.7988999,7.35681756 C10.7381875,7.44788615 10.7381875,7.53895475 10.7685437,7.63002334 L15.8987412,15.7958407 C15.9898098,15.9476217 15.8987412,16.1601151 15.716604,16.1601151 L10.2221321,16.1601151 C10.1007073,16.1601151 10.0096387,16.0994027 9.94892631,16.0083341 L7.36864945,11.7888225 C7.21686846,11.5459729 6.88295028,11.5156167 6.70081309,11.7281101 L5.91155194,12.6995085 C5.82048334,12.8209332 5.75977095,12.942358 5.75977095,13.094139 L5.75977095,15.8261969 C5.75977095,16.0083341 5.60798995,16.1297589 5.45620896,16.1297589 L0.933135421,16.1297589 C0.750998232,16.1297589 0.629573438,15.9779779 0.629573438,15.8261969 L0.629573438,1.16415311 C0.629573438,0.982015921 0.750998232,0.83023493 0.933135421,0.83023493" id="Fill-1"></path>
                <path d="M41.0033171,0.83023493 L45.4960345,0.83023493 C45.6781717,0.83023493 45.7995965,0.982015921 45.7995965,1.13379691 L45.7995965,5.32295227 C45.7995965,5.71758285 46.3156518,5.89972004 46.5585014,5.56580186 L50.0798204,0.951659723 C50.1405328,0.860591128 50.2316014,0.83023493 50.32267,0.83023493 L55.6350047,0.83023493 C55.8171419,0.83023493 55.9385667,1.04272832 55.8171419,1.19450931 L50.8994378,7.32646136 C50.8387254,7.41752995 50.8387254,7.50859855 50.8690816,7.59966714 L55.9992791,15.7654845 C56.0903477,15.9172655 55.9992791,16.1297589 55.8171419,16.1297589 L50.32267,16.1297589 C50.2012452,16.1297589 50.1101766,16.0690465 50.0494642,15.9779779 L47.4388312,11.7888225 C47.2870502,11.5459729 46.953132,11.5156167 46.7709948,11.7281101 L45.9817336,12.6995085 C45.8906651,12.8209332 45.8299527,12.942358 45.8299527,13.094139 L45.8299527,15.8261969 C45.8299527,16.0083341 45.6781717,16.1297589 45.5263907,16.1297589 L41.0336733,16.1297589 C40.8515361,16.1297589 40.7301113,15.9779779 40.7301113,15.8261969 L40.7301113,1.16415311 C40.6997551,0.982015921 40.8211799,0.83023493 41.0033171,0.83023493" id="Fill-4"></path>
                <path d="M17.7504389,0.83023493 L22.2128,0.83023493 C22.3949372,0.83023493 22.5467182,0.982015921 22.5467182,1.16415311 L22.5467182,15.7958407 C22.5467182,15.9779779 22.3949372,16.1297589 22.2128,16.1297589 L17.7504389,16.1297589 C17.5683017,16.1297589 17.4165207,15.9779779 17.4165207,15.7958407 L17.4165207,1.16415311 C17.4165207,0.982015921 17.5683017,0.83023493 17.7504389,0.83023493" id="Fill-6"></path>
                <path d="M66.7454643,10.2408082 L65.622285,7.26559718 C65.5615726,7.11381619 65.3490792,7.11381619 65.2883668,7.26559718 L64.1651875,10.2408082 C64.1044751,10.3619294 64.2258999,10.5137104 64.3473247,10.5137104 L66.5633271,10.5137104 C66.6847519,10.5137104 66.7758205,10.3619294 66.7454643,10.2408082 M63.3455701,0.79972695 L67.5954379,0.79972695 C67.8382875,0.79972695 68.0811371,0.951507942 68.1722056,1.16430489 L74.3041577,15.8260451 C74.3952263,16.0084858 74.2434453,16.2206757 74.0613081,16.2206757 L69.1132478,16.2206757 C68.991823,16.2206757 68.9007544,16.1602668 68.8703982,16.038842 L68.2936304,14.5510848 C68.2025618,14.3082352 67.9597123,14.1564542 67.7168627,14.1564542 L63.1937891,14.1564542 C62.9509395,14.1564542 62.70809,14.3082352 62.6170214,14.5510848 L62.0402536,16.038842 C62.0098974,16.1602668 61.8884726,16.2206757 61.7670478,16.2206757 L56.9100561,16.2206757 C56.6975627,16.2206757 56.5761379,16.0084858 56.6672065,15.8260451 L62.7991586,1.16430489 C62.8902271,0.951507942 63.1027205,0.79972695 63.3455701,0.79972695" id="Fill-8"></path>
                <path d="M24.0038461,8.54067893 L24.0038461,8.51032273 C24.0038461,4.38187977 27.1305345,0.921273168 31.2286213,0.556998789 C34.9927899,0.253436806 37.5123543,1.86231531 38.9390956,4.29081118 C38.999808,4.41223597 38.9694518,4.53366076 38.8480271,4.59437316 L35.0231461,6.84073183 C34.9017213,6.90174779 34.7802965,6.87108803 34.7195841,6.7499668 C34.1428163,5.77826489 33.3535552,5.11042853 32.0482386,5.11042853 C30.3179353,5.11042853 29.194756,6.62823844 29.194756,8.44961034 L29.194756,8.47996654 C29.194756,10.4834756 30.3786477,11.8798607 32.0482386,11.8798607 C33.4142676,11.8798607 34.2035287,11.1816682 34.8106527,10.1495574 C34.8713651,10.0281326 35.0231461,9.99777645 35.1142147,10.0584888 L38.9390956,12.2140825 C39.0605204,12.2744913 39.0908766,12.4262723 39.0301642,12.5476971 C37.7248477,14.7333434 35.5999138,16.4639502 31.9268139,16.4639502 C27.7073023,16.4639502 24.0038461,13.2765494 24.0038461,8.54067893" id="Fill-10"></path>
                <path d="M81.8627904,6.26396406 C81.5895846,6.20325167 81.3770912,6.17289547 81.1645978,6.11218307 C80.7699672,5.99106184 80.2539118,5.71755249 80.3146242,5.23215688 C80.3753366,4.77681391 80.8306796,4.62503292 81.194954,4.62503292 C82.4395581,4.68544175 83.8662994,5.04971613 85.1412598,5.86933349 C85.3537532,6.02111448 85.6573151,5.96040208 85.8090961,5.74790869 L87.7215366,3.10691944 C87.8733176,2.86406986 87.8429614,2.56050787 87.6001118,2.37837068 C85.9305209,1.16412275 83.8359432,0.556998789 81.1342416,0.556998789 C76.91473,0.556998789 74.6380152,2.80335746 74.6380152,5.71755249 L74.6380152,5.74790869 C74.6380152,8.99602191 77.6432788,9.96742025 81.0735292,10.6656128 C81.2860226,10.6962726 81.4681598,10.7566814 81.6199408,10.7870376 C81.9842151,10.8781062 82.7734763,11.1816682 82.6824077,11.7887921 C82.5913391,12.3048475 81.8324342,12.3658635 81.4378036,12.3658635 L81.3163788,12.3658635 L81.2253102,12.3658635 C79.7682127,12.2441351 78.2504028,11.7887921 76.8843738,10.8480536 C76.6718804,10.6962726 76.3986747,10.7566814 76.2165375,10.9388186 L74.1219598,13.4283304 C73.9398226,13.6405202 73.9701788,13.9744384 74.2130284,14.1565756 C76.1254689,15.6440293 78.7664581,16.4029343 81.650297,16.4029343 C85.7483837,16.4029343 88.389373,14.4297814 88.389373,11.2120244 L88.389373,11.1816682 C88.389373,8.11599572 85.7787399,6.99251282 81.8627904,6.26396406" id="Fill-13"></path>
                <path d="M96.4337655,6.26396406 C96.1605597,6.20325167 95.9480663,6.17289547 95.735573,6.11218307 C95.3409424,5.99106184 94.824887,5.71755249 94.8855994,5.23215688 C94.9463118,4.77681391 95.4016548,4.62503292 95.7659292,4.62503292 C97.0105333,4.68544175 98.4372746,5.04971613 99.7122349,5.86933349 C99.9247283,6.02111448 100.22829,5.96040208 100.380071,5.74790869 L102.292512,3.10691944 C102.444293,2.86406986 102.413937,2.56050787 102.171087,2.37837068 C100.501496,1.16412275 98.4069184,0.556998789 95.7052168,0.556998789 C91.4857052,0.556998789 89.2089903,2.80335746 89.2089903,5.71755249 L89.2089903,5.74790869 C89.2089903,8.99602191 92.214254,9.96742025 95.6445044,10.6656128 C95.8569978,10.6962726 96.0391349,10.7566814 96.1909159,10.7870376 C96.5551903,10.8781062 97.3444515,11.1816682 97.2533829,11.7887921 C97.1623143,12.3048475 96.4034093,12.3658635 96.0087787,12.3658635 L95.887354,12.3658635 L95.7962854,12.3658635 C94.3391878,12.2441351 92.8213779,11.7887921 91.455349,10.8480536 C91.2428556,10.6962726 90.9696498,10.7566814 90.7875126,10.9388186 L88.692935,13.4283304 C88.5107978,13.6405202 88.541154,13.9744384 88.7840036,14.1565756 C90.696444,15.6440293 93.3374333,16.4029343 96.2212721,16.4029343 C100.319359,16.4029343 102.960348,14.4297814 102.960348,11.2120244 L102.960348,11.1816682 C102.960348,8.11599572 100.349715,6.99251282 96.4337655,6.26396406" id="Fill-15"></path>
                <path d="M137.004642,10.2408082 L135.881463,7.26559718 C135.821054,7.11381619 135.608257,7.11381619 135.547545,7.26559718 L134.424366,10.2408082 C134.363653,10.3619294 134.485078,10.5137104 134.606806,10.5137104 L136.822505,10.5137104 C136.94393,10.5137104 137.065355,10.3619294 137.004642,10.2408082 M133.635104,0.79972695 L137.884972,0.79972695 C138.127822,0.79972695 138.370671,0.951507942 138.46174,1.16430489 L144.593692,15.8260451 C144.684761,16.0084858 144.53298,16.2206757 144.350842,16.2206757 L139.402782,16.2206757 C139.281357,16.2206757 139.190289,16.1602668 139.160236,16.038842 L138.583165,14.5510848 C138.492096,14.3082352 138.24955,14.1564542 138.006397,14.1564542 L133.452967,14.1564542 C133.210118,14.1564542 132.967268,14.3082352 132.876199,14.5510848 L132.299432,16.038842 C132.269075,16.1602668 132.147651,16.2206757 132.026226,16.2206757 L127.169234,16.2206757 C126.956741,16.2206757 126.835316,16.0084858 126.926385,15.8260451 L133.058337,1.16430489 C133.149405,0.951507942 133.361899,0.79972695 133.635104,0.79972695" id="Fill-17"></path>
                <path d="M121.765922,8.32812483 C123.071238,8.32812483 123.951568,7.75166063 123.951568,6.65853393 L123.951568,6.62817773 C123.951568,5.50499839 123.131951,4.95858683 121.796278,4.95858683 L120.642743,4.95858683 C120.521318,4.95858683 120.399893,5.04965542 120.399893,5.20143641 L120.399893,8.14598764 C120.399893,8.267716 120.490962,8.38883723 120.642743,8.38883723 L121.765922,8.38883723 L121.765922,8.32812483 Z M115.269695,1.19441824 C115.269695,0.981924852 115.421476,0.830143861 115.63397,0.830143861 L122.160552,0.830143861 C126.228283,0.830143861 128.990697,2.65151576 128.990697,6.26390335 L128.990697,6.32461575 C128.990697,10.0283755 126.167571,11.9708686 122.039128,11.9708686 L120.612386,11.9708686 C120.490962,11.9708686 120.369537,12.0622408 120.369537,12.2140218 L120.369537,15.7653934 C120.369537,15.9778868 120.217756,16.1296678 120.005262,16.1296678 L115.603614,16.1296678 C115.39112,16.1296678 115.239339,15.9778868 115.239339,15.7653934 L115.239339,1.19441824 L115.269695,1.19441824 Z" id="Fill-19"></path>
                <path d="M152.911412,8.11587429 C154.12566,8.11587429 154.884565,7.56915916 154.884565,6.62842058 L154.884565,6.59806438 C154.884565,5.62666604 154.12566,5.1406633 152.941768,5.1406633 L151.09004,5.1406633 C150.877546,5.1406633 150.725765,5.29244429 150.725765,5.50493768 L150.725765,7.75159992 C150.725765,7.9640933 150.877546,8.11587429 151.09004,8.11587429 L152.911412,8.11587429 Z M145.595264,1.25506992 C145.595264,1.0125239 145.777705,0.830386711 146.020555,0.830386711 L153.063193,0.830386711 C155.764591,0.830386711 157.495198,1.49822307 158.557665,2.59104621 C159.468351,3.50173216 159.95405,4.65526769 159.95405,6.23379 L159.95405,6.26384264 C159.95405,8.35872388 158.921939,9.87653379 157.252348,10.7872197 C157.100567,10.8782883 157.039855,11.0907817 157.161279,11.2425627 L160.105831,15.5224831 C160.287968,15.7959925 160.105831,16.1296071 159.771912,16.1296071 L155.127414,16.1296071 C154.853905,16.1296071 154.581003,15.9778261 154.429222,15.7352801 L151.909657,11.9103991 C151.848945,11.8190269 151.72752,11.7586181 151.606095,11.7586181 L151.120396,11.7586181 C150.877546,11.7586181 150.695409,11.9407553 150.695409,12.1833013 L150.695409,15.7352801 C150.695409,15.9778261 150.513272,16.1602668 150.270422,16.1602668 L145.990198,16.1602668 C145.747045,16.1602668 145.565212,15.9778261 145.565212,15.7352801 L145.565212,1.25506992 L145.595264,1.25506992 Z" id="Fill-21"></path>
                <path d="M215.05061,8.11587429 C216.264858,8.11587429 217.023763,7.56915916 217.023763,6.62842058 L217.023763,6.59806438 C217.023763,5.62666604 216.264858,5.1406633 215.080966,5.1406633 L213.229238,5.1406633 C213.016745,5.1406633 212.864964,5.29244429 212.864964,5.50493768 L212.864964,7.75159992 C212.864964,7.9640933 213.016745,8.11587429 213.229238,8.11587429 L215.05061,8.11587429 Z M207.734463,1.25506992 C207.734463,1.0125239 207.916904,0.830386711 208.159753,0.830386711 L215.202391,0.830386711 C217.903789,0.830386711 219.634396,1.49822307 220.696863,2.59104621 C221.607549,3.50173216 222.092945,4.65526769 222.092945,6.23379 L222.092945,6.26384264 C222.092945,8.35872388 221.061137,9.87653379 219.391547,10.7872197 C219.239766,10.8782883 219.179053,11.0907817 219.300478,11.2425627 L222.244726,15.5224831 C222.427166,15.7959925 222.244726,16.1296071 221.911111,16.1296071 L217.266613,16.1296071 C216.993103,16.1296071 216.720201,15.9778261 216.56842,15.7352801 L214.048552,11.9103991 C213.988143,11.8190269 213.866719,11.7586181 213.74499,11.7586181 L213.259595,11.7586181 C213.016745,11.7586181 212.834304,11.9407553 212.834304,12.1833013 L212.834304,15.7352801 C212.834304,15.9778261 212.652471,16.1602668 212.409621,16.1602668 L208.129093,16.1602668 C207.886244,16.1602668 207.70441,15.9778261 207.70441,15.7352801 L207.70441,1.25506992 L207.734463,1.25506992 Z" id="Fill-23"></path>
                <path d="M164.993118,5.17126235 L161.168237,5.17126235 C160.9861,5.17126235 160.834319,5.01948136 160.834319,4.83704061 L160.834319,1.19460038 C160.834319,1.01246319 160.9861,0.860682196 161.168237,0.860682196 L174.585677,0.860682196 C174.767814,0.860682196 174.919595,1.01246319 174.919595,1.19460038 L174.919595,4.83704061 C174.919595,5.01948136 174.767814,5.17126235 174.585677,5.17126235 L170.760796,5.17126235 C170.578658,5.17126235 170.426877,5.32304334 170.426877,5.50518053 L170.426877,15.7959317 C170.426877,15.9780689 170.275096,16.1602061 170.062603,16.1602061 L165.660954,16.1602061 C165.478817,16.1602061 165.29668,16.0084251 165.29668,15.7959317 L165.29668,5.50518053 C165.327036,5.32304334 165.175255,5.17126235 164.993118,5.17126235" id="Fill-25"></path>
                <path d="M176.619481,0.83023493 L180.414006,0.83023493 C180.808636,0.83023493 181.203571,1.01237212 181.446117,1.3159341 L185.938834,6.90147458 C186.120971,7.14432417 186.485246,6.99254318 186.485246,6.71933739 L186.485246,1.19450931 C186.485246,1.01237212 186.637027,0.860591128 186.819467,0.860591128 L191.190456,0.860591128 C191.372897,0.860591128 191.524678,1.01237212 191.524678,1.19450931 L191.524678,15.7958407 C191.524678,15.9779779 191.372897,16.1297589 191.190456,16.1297589 L187.638781,16.1297589 C187.24415,16.1297589 186.84952,15.9476217 186.60667,15.6440597 L181.871103,9.75495722 C181.688966,9.51210763 181.324692,9.66388862 181.324692,9.93709441 L181.324692,15.7654845 C181.324692,15.9476217 181.172911,16.0994027 180.990774,16.0994027 L176.619481,16.0994027 C176.437344,16.0994027 176.285563,15.9476217 176.285563,15.7654845 L176.285563,1.19450931 C176.255207,1.01237212 176.406988,0.83023493 176.619481,0.83023493" id="Fill-27"></path>
                <path d="M193.406398,0.83023493 L205.761371,0.83023493 C205.943811,0.83023493 206.125645,0.982015921 206.125645,1.19450931 L206.125645,4.68547211 C206.125645,4.8676093 205.973864,5.04974649 205.761371,5.04974649 L198.415171,5.04974649 C198.233034,5.04974649 198.0512,5.20152748 198.0512,5.41402087 L198.0512,6.26399442 C198.0512,6.44613161 198.202981,6.6282688 198.415171,6.6282688 L205.184907,6.6282688 C205.36674,6.6282688 205.548877,6.78004979 205.548877,6.99254318 L205.548877,9.96745061 C205.548877,10.1495878 205.397096,10.331725 205.184907,10.331725 L198.415171,10.331725 C198.233034,10.331725 198.0512,10.483506 198.0512,10.6959994 L198.0512,11.6370415 C198.0512,11.8191787 198.202981,12.0013159 198.415171,12.0013159 L205.852439,12.0013159 C206.03488,12.0013159 206.216714,12.1530969 206.216714,12.3655903 L206.216714,15.8565531 C206.216714,16.0386903 206.064933,16.2208275 205.852439,16.2208275 L193.406398,16.2208275 C193.224261,16.2208275 193.042427,16.0690465 193.042427,15.8565531 L193.042427,1.19450931 C193.042427,1.01237212 193.194208,0.83023493 193.406398,0.83023493" id="Fill-29"></path>
                <path d="M230.44096,6.26396406 C230.168058,6.20325167 229.955261,6.17289547 229.742767,6.11218307 C229.348137,5.99106184 228.832081,5.71755249 228.892794,5.23215688 C228.95381,4.77681391 229.409153,4.62503292 229.773427,4.62503292 C231.017728,4.68544175 232.444773,5.04971613 233.719733,5.86933349 C233.931923,6.02111448 234.235485,5.96040208 234.387266,5.74790869 L236.30001,3.10691944 C236.451791,2.86406986 236.421131,2.56050787 236.178281,2.37837068 C234.478638,1.16412275 232.414113,0.556998789 229.682055,0.556998789 C225.462847,0.556998789 223.186132,2.80335746 223.186132,5.71755249 L223.186132,5.74790869 C223.186132,8.99602191 226.191092,9.96742025 229.621646,10.6656128 C229.833836,10.6962726 230.016277,10.7566814 230.168058,10.7870376 C230.532332,10.8781062 231.32129,11.1816682 231.230525,11.7887921 C231.139456,12.3048475 230.380551,12.3658635 229.985617,12.3658635 L229.864496,12.3658635 L229.773427,12.3658635 C228.316026,12.2441351 226.798216,11.7887921 225.432187,10.8480536 C225.219997,10.6962726 224.946488,10.7566814 224.764654,10.9388186 L222.669773,13.4283304 C222.48794,13.6405202 222.517992,13.9744384 222.760842,14.1565756 C224.673282,15.6440293 227.314271,16.4029343 230.19811,16.4029343 C234.296197,16.4029343 236.937186,14.4297814 236.937186,11.2120244 L236.937186,11.1816682 C236.967543,8.11599572 234.356909,6.99251282 230.44096,6.26396406" id="Fill-31"></path>
            </g>
        </g>
    </g>
</svg>