<?xml version="1.0" encoding="UTF-8"?>
<svg width="90px" height="32px" viewBox="0 0 90 32" version="1.1" xmlns="http://www.w3.org/2000/svg" xmlns:xlink="http://www.w3.org/1999/xlink">
    <!-- Generator: Sketch 51.1 (57501) - http://www.bohemiancoding.com/sketch -->
    <title>choon-logo</title>
    <desc>Created with Sketch.</desc>
    <defs></defs>
    <g id="V2---Desktop" stroke="none" stroke-width="1" fill="none" fill-rule="evenodd">
        <g id="Music" transform="translate(-764.000000, -1238.000000)" fill="#FFFFFF" fill-rule="nonzero">
            <g id="choon-logo" transform="translate(764.785658, 1238.880382)">
                <path d="M9.89272987,30.7191313 C3.31010175,30.7191313 0,25.6909681 0,19.237088 C0,9.93170461 7.42676527,2.38101194 15.8694106,2.38101194 C18.36085,2.38101194 20.6296677,3.22118019 21.7824042,3.67121546 L21.3989371,10.2607484 L21.0269337,10.335731 C20.4012433,3.43034954 17.7659417,3.13139654 14.9022158,3.13139654 C8.76575122,3.13139654 4.16520725,12.1455766 4.16520725,20.437857 C4.16520725,26.554036 6.24798778,29.9686769 9.96703149,29.9686769 C13.574552,29.9686769 16.1777269,25.9538261 19.0414529,22.0514492 L19.4135271,22.1638533 L17.7024669,28.3928553 C16.8098568,29.1807312 13.2026193,30.7191313 9.89280063,30.7191313" id="Fill-1"></path>
                <path d="M32.3035135,13.9671512 C30.1060962,13.9671512 28.1403584,17.4834445 25.3645914,24.0814252 L25.2876008,24.5160311 C24.7865956,27.0052582 24.6707558,28.5462415 25.0178505,30.2844556 L25.0178505,30.3633479 L19.8137651,30.3633479 L19.8137651,30.2844556 C20.7004311,28.5462415 21.2400024,26.3335564 21.9726164,22.9753969 L25.2103271,7.86242203 C25.7116861,5.4521571 25.9045165,3.31871343 24.4010056,2.05455136 L24.2789386,1.97565904 L30.4144125,0 L25.7886768,21.1973177 C27.831759,15.7054352 30.8384979,10.92491 34.346525,10.92491 C36.6594282,10.92491 38.0856655,13.0584235 37.2759901,17.1674564 L35.7340546,24.7928524 C35.001653,28.2694202 34.7318319,29.6522699 36.8519048,30.0474296 L36.8519048,30.1263219 L30.7230119,30.7191313 L33.613911,17.4044824 C34.0379963,15.389447 33.72968,13.9671512 32.3035135,13.9671512" id="Fill-4"></path>
                <path d="M45.3091982,29.3269962 C48.7717951,29.3269962 51.9873569,22.887987 51.9873569,15.6777181 C51.9873569,12.9401548 51.3277001,11.1664741 49.5549342,11.1664741 C45.9276707,11.1664741 42.8359449,17.6054134 42.8359449,24.8156823 C42.8359449,27.5532456 43.5367861,29.3269263 45.3091982,29.3269263 M45.1857159,30.0209693 C41.0635329,30.0209693 38.9198958,27.3606925 38.9198958,23.0805401 C38.9198958,16.7572861 44.4845917,10.4724311 49.6375859,10.4724311 C53.7598397,10.4724311 55.903123,13.1329872 55.903123,17.4513989 C55.903123,23.7362539 50.338144,30.0209693 45.1857159,30.0209693" id="Fill-6"></path>
                <path d="M60.8771565,29.3269962 C64.3397534,29.3269962 67.5553152,22.887987 67.5553152,15.6777181 C67.5553152,12.9401548 66.8956584,11.1664741 65.1228925,11.1664741 C61.495629,11.1664741 58.4039032,17.6054134 58.4039032,24.8156823 C58.4039032,27.5532456 59.1047444,29.3269263 60.8771565,29.3269263 M60.7536742,30.0209693 C56.6314912,30.0209693 54.4878541,27.3606925 54.4878541,23.0805401 C54.4878541,16.7572861 60.05255,10.4724311 65.2055442,10.4724311 C69.3277981,10.4724311 71.4710813,13.1329872 71.4710813,17.4513989 C71.4710813,23.7362539 65.9061023,30.0209693 60.7536742,30.0209693" id="Fill-8"></path>
                <path d="M84.0002449,13.783395 C81.8549803,13.783395 79.9352387,17.2886573 77.225211,23.8659724 L77.1500602,24.2992518 C76.6605187,26.7806594 76.472571,28.3167556 76.8111033,30.0495939 L76.8111033,30.1282768 L71.7297217,30.1282768 L71.7297217,30.0495939 C72.7460971,28.0015355 73.2356386,26.1110522 73.8377648,22.763365 L74.7410602,18.3915439 C75.3433279,15.4769267 75.0799464,13.5470671 73.950774,12.6018953 L73.950774,12.5232124 L79.747008,10.553767 L77.6017433,21.0696238 C79.5963526,15.5951954 82.5321865,10.7507884 85.9954911,10.7507884 C88.2538357,10.7507884 89.6463896,12.8775297 88.8558911,16.9737164 L87.3126111,24.5751654 C86.5975465,28.040842 86.3340942,29.3799867 88.4417834,29.813266 L88.4417834,29.8919489 L82.4573187,30.4828733 L85.2800726,17.2100443 C85.6941803,15.2012225 85.3552942,13.7834648 84.0002449,13.7834648" id="Fill-10"></path>
            </g>
        </g>
    </g>
</svg>