<?xml version="1.0" encoding="UTF-8"?>
<svg width="13px" height="19px" viewBox="0 0 13 19" version="1.1" xmlns="http://www.w3.org/2000/svg" xmlns:xlink="http://www.w3.org/1999/xlink">
    <!-- Generator: Sketch 49.2 (51160) - http://www.bohemiancoding.com/sketch -->
    <title>Page 1</title>
    <desc>Created with Sketch.</desc>
    <defs>
        <polygon id="path-1" points="0.148693909 0.0495848737 5.64974405 0.0495848737 5.64974405 5.55062647 0.148693909 5.55062647"></polygon>
    </defs>
    <g id="Page-1" stroke="none" stroke-width="1" fill="none" fill-rule="evenodd">
        <g id="Landing" transform="translate(-43.000000, -1830.000000)">
            <g id="Group" transform="translate(0.000000, 1808.000000)">
                <g id="Page-1" transform="translate(43.000000, 22.125000)">
                    <path d="M6.29421731,2.35826943 C6.00678637,2.35826943 5.77382333,2.12530639 5.77382333,1.83787544 L5.77382333,0.520411334 C5.77382333,0.232980388 6.00678637,1.73464662e-05 6.29421731,1.73464662e-05 C6.58164826,1.73464662e-05 6.8146113,0.232980388 6.8146113,0.520411334 L6.8146113,1.83787544 C6.8146113,2.12530639 6.58164826,2.35826943 6.29421731,2.35826943" id="Fill-1" fill="#F1F1F1"></path>
                    <path d="M8.32411814,2.86121287 C8.21934548,2.86121287 8.11387897,2.8296423 8.02228963,2.76424613 C7.7882858,2.59737312 7.73416482,2.27212688 7.90121129,2.03846998 L8.67781258,0.950846547 C8.84503252,0.717016182 9.16993183,0.662895207 9.4037622,0.829768212 C9.63759256,0.996814682 9.691887,1.32188746 9.52484053,1.55571782 L8.74806577,2.64316779 C8.64641548,2.78540882 8.48665453,2.86121287 8.32411814,2.86121287" id="Fill-3" fill="#F1F1F1"></path>
                    <path d="M4.26429914,2.86121287 C4.10176275,2.86121287 3.9420018,2.78540882 3.84035151,2.64316779 L3.06357675,1.55571782 C2.89653028,1.32188746 2.95082472,0.996814682 3.18465508,0.829768212 C3.41865891,0.662548278 3.74355822,0.717016182 3.91060469,0.950846547 L4.68720599,2.03846998 C4.85425246,2.27212688 4.80013148,2.59737312 4.56612765,2.76424613 C4.47453831,2.8296423 4.36889833,2.86121287 4.26429914,2.86121287" id="Fill-5" fill="#F1F1F1"></path>
                    <path d="M3.05903197,16.0765314 C2.76605016,16.3695133 2.76622362,16.8463676 3.05920544,17.1396964 C3.20109953,17.2815905 3.38982909,17.359823 3.5905277,17.359823 C3.79139978,17.359823 3.98012933,17.2815905 4.12219689,17.1396964 C4.26409098,16.9976288 4.34232355,16.8088992 4.34232355,16.6080272 C4.34232355,16.4073286 4.26409098,16.218599 4.12219689,16.0765314 C3.91889631,15.8734043 3.91889631,15.5438215 4.12219689,15.3406943 L9.52943734,9.93345389 C9.62692448,9.83579328 9.75927802,9.78097845 9.89735589,9.78097845 C10.0354338,9.78097845 10.1677873,9.83579328 10.2654479,9.93345389 C10.4071685,10.075348 10.5958981,10.1535805 10.7967702,10.1535805 C10.9976422,10.1535805 11.1863718,10.075348 11.3284394,9.93345389 C11.6214212,9.64029861 11.6212477,9.16344425 11.3282659,8.87028897 C11.0352841,8.57713369 10.5580828,8.57730716 10.2652744,8.87028897 C10.0619739,9.07358956 9.73273793,9.07358956 9.52943734,8.87028897 C9.42778705,8.76863868 9.37696191,8.63559129 9.37696191,8.50237042 C9.37696191,8.36914956 9.42778705,8.23610217 9.52943734,8.13445188 C9.82241916,7.8412966 9.82241916,7.36444224 9.52943734,7.07146043 C9.23628206,6.77830515 8.75925424,6.77830515 8.46627243,7.07146043 C8.32437833,7.21335452 8.24597231,7.40208407 8.24597231,7.60295615 C8.24597231,7.80382823 8.32437833,7.99238432 8.46627243,8.13462534 C8.66957301,8.33775246 8.66957301,8.66733532 8.46627243,8.87046244 L3.05903197,14.2775294 C2.85573139,14.48083 2.52649546,14.48083 2.32319488,14.2775294 C2.0300396,13.9843741 1.55301178,13.9840272 1.26002996,14.2777029 C0.967048146,14.5706847 0.966874681,15.0475391 1.26002996,15.3406943 C1.55301178,15.6336762 2.0300396,15.6336762 2.32319488,15.3406943 C2.52649546,15.1373938 2.85573139,15.1373938 3.05903197,15.3406943 C3.16068227,15.4423446 3.21150741,15.575392 3.21150741,15.7086129 C3.21150741,15.8416603 3.16068227,15.9748811 3.05903197,16.0765314 M3.5905277,18.3999171 C3.1315402,18.3999171 2.67255271,18.2250647 2.32319488,17.8755335 C1.97175547,17.5242675 1.79725002,17.0621577 1.79898467,16.6005682 C1.79655616,16.6005682 1.79412766,16.6007417 1.79152569,16.6007417 C1.33253819,16.6007417 0.873550693,16.4260627 0.524192863,16.0765314 C-0.174696261,15.3778158 -0.174696261,14.2405815 0.524019398,13.5416923 C1.095412,12.9709936 1.95891909,12.8660475 2.63647206,13.2280682 L7.41629083,8.44859638 C7.27838642,8.19152175 7.20518433,7.90287655 7.20518433,7.60295615 C7.20518433,7.12419368 7.39183231,6.67405288 7.73043533,6.33544986 C8.42949792,5.63656074 9.56655878,5.6367342 10.2652744,6.33562333 C10.6165404,6.68688927 10.7912193,7.14882566 10.7893112,7.61024167 L10.7967702,7.61024167 C11.2557577,7.61024167 11.7147452,7.78492058 12.0642765,8.13427841 C12.7629921,8.833341 12.7629921,9.97057533 12.0642765,10.669291 C11.7256734,11.007894 11.2755326,11.1943685 10.7967702,11.1943685 C10.4968498,11.1943685 10.2082046,11.1213399 9.95112994,10.9834355 L5.1716581,15.7629073 C5.53367885,16.4411542 5.42907966,17.3046613 4.85803399,17.8755335 C4.50850269,18.2250647 4.04968866,18.3999171 3.5905277,18.3999171" id="Fill-7" fill="#F1F1F1"></path>
                    <path d="M3.18184495,11.3125326 C3.04862409,11.3125326 2.9155767,11.2617075 2.81392641,11.1600572 L2.63716592,10.9834702 C2.38026475,11.1212011 2.09161955,11.1944032 1.79152569,11.1944032 C1.31293668,11.1944032 0.862795884,11.0079287 0.524192863,10.6693257 C-0.174696261,9.97061002 -0.174696261,8.83337569 0.524019398,8.13448657 C0.875458804,7.78322063 1.33895638,7.60767439 1.79898467,7.61027636 C1.79725002,7.14886036 1.97175547,6.68692396 2.32319488,6.33565802 C3.022084,5.63659543 4.15914486,5.63659543 4.85803399,6.33565802 C5.19663701,6.67408758 5.38311152,7.12405491 5.38311152,7.60299084 C5.38311152,7.90291124 5.3100829,8.19155644 5.17217849,8.44863107 L5.34859205,8.6252181 C5.55189264,8.82834522 5.55189264,9.15792808 5.34859205,9.3610552 C5.14529147,9.56435578 4.81605554,9.56435578 4.61275495,9.3610552 L4.12219689,8.87049713 C3.91889631,8.66737001 3.91889631,8.33778715 4.12219689,8.13466003 C4.26409098,7.99241901 4.34232355,7.80368946 4.34232355,7.60299084 C4.34232355,7.40211876 4.26409098,7.21338921 4.12219689,7.07166858 C3.82869468,6.77781944 3.35166686,6.77833984 3.05903197,7.07149512 C2.76605016,7.36447693 2.76605016,7.84133129 3.05903197,8.13448657 C3.16068227,8.23613686 3.21150741,8.36918426 3.21150741,8.50240512 C3.21150741,8.63545251 3.16068227,8.76867337 3.05903197,8.87032367 C2.85573139,9.07362425 2.52649546,9.07362425 2.32319488,8.87032367 C2.0300396,8.57716839 1.55301178,8.57682146 1.26002996,8.87049713 C0.967048146,9.16347895 0.966874681,9.6403333 1.26002996,9.93348858 C1.40209752,10.0753827 1.59082707,10.1536152 1.79152569,10.1536152 C1.99257123,10.1536152 2.18112732,10.0753827 2.32302141,9.93348858 C2.51816916,9.73834084 2.86388423,9.73834084 3.05903197,9.93348858 L3.5497635,10.4242201 C3.75306409,10.6273472 3.75306409,10.9569301 3.5497635,11.1600572 C3.44811321,11.2617075 3.31506582,11.3125326 3.18184495,11.3125326" id="Fill-9" fill="#F1F1F1"></path>
                    <g id="Group-13" transform="translate(6.938586, 12.849048)">
                        <mask id="mask-2" fill="white">
                            <use xlink:href="#path-1"></use>
                        </mask>
                        <g id="Clip-12"></g>
                        <path d="M2.0592337,5.55062634 C1.6002462,5.55079981 1.14125871,5.37594743 0.791727412,5.0265896 C0.220681743,4.4557174 0.116256017,3.59203684 0.478276767,2.91396348 L0.301169347,2.73685606 C0.0978687625,2.53372894 0.0978687625,2.20414608 0.301169347,2.00101896 C0.504469931,1.79771837 0.833879325,1.79771837 1.03700644,2.00101896 L1.52773797,2.49157702 C1.73086509,2.69470414 1.73086509,3.02446047 1.52773797,3.22741412 C1.23458269,3.5205694 1.23458269,3.99759722 1.52773797,4.29057904 C1.82071979,4.58373432 2.29774761,4.58373432 2.59072943,4.29057904 C2.88371124,3.99759722 2.88371124,3.5205694 2.59055596,3.22741412 C2.4892526,3.12576383 2.43842745,2.99271643 2.43842745,2.85932211 C2.43842745,2.72627471 2.4892526,2.59305385 2.59072943,2.49140356 C2.79403001,2.2884499 3.12361287,2.28827644 3.32691345,2.49157702 C3.46863408,2.63364458 3.65736363,2.71187715 3.85823571,2.71187715 C4.05893433,2.71187715 4.24766388,2.63364458 4.3899049,2.49157702 C4.68288672,2.19859521 4.68271325,1.72174085 4.38973144,1.42841211 C4.09674962,1.13508336 3.61954834,1.13543029 3.32673999,1.42841211 C3.1234394,1.63171269 2.79403001,1.63153923 2.59072943,1.42858557 L2.0999979,0.938027508 C1.89669731,0.734726924 1.89669731,0.40531753 2.09982443,0.202016946 C2.30312501,-0.0012836385 2.63270787,-0.00111017384 2.83600846,0.201843481 L3.01311588,0.379124366 C3.69101578,0.0176240097 4.55469633,0.121529342 5.125742,0.692401546 C5.82445766,1.39146414 5.82445766,2.52869846 5.125742,3.22741412 C4.78713898,3.56619061 4.33699818,3.75266512 3.85823571,3.75266512 L3.85077673,3.75266512 C3.85233791,4.21373419 3.677659,4.67532366 3.32691345,5.0265896 C2.97738216,5.37594743 2.5182212,5.55062634 2.0592337,5.55062634" id="Fill-11" fill="#F1F1F1" mask="url(#mask-2)"></path>
                    </g>
                </g>
            </g>
        </g>
    </g>
</svg>