<?xml version="1.0" encoding="UTF-8"?>
<svg width="132px" height="26px" viewBox="0 0 132 26" version="1.1" xmlns="http://www.w3.org/2000/svg" xmlns:xlink="http://www.w3.org/1999/xlink">
    <!-- Generator: Sketch 51.1 (57501) - http://www.bohemiancoding.com/sketch -->
    <title>Facebook Logo</title>
    <desc>Created with Sketch.</desc>
    <defs></defs>
    <g id="V2---Desktop" stroke="none" stroke-width="1" fill="none" fill-rule="evenodd">
        <g id="Music" transform="translate(-593.000000, -1244.000000)" fill="#FFFFFE">
            <g id="Facebook-Logo" transform="translate(593.333813, 1244.253773)">
                <path d="M73.096994,18.9527656 C72.8673409,20.557883 71.5710563,21.398027 70.0334564,21.2804069 C69.649505,21.2503386 69.3014369,21.1725147 68.9892521,21.0522414 C67.7503808,20.3509422 67.3754002,19.1765093 67.2668532,18.4389512 C67.2650591,18.4398356 67.264162,18.4398356 67.264162,18.44072 C67.1798362,17.2990084 67.0883338,14.9129993 67.6525988,13.7854375 C68.1325381,12.9205313 68.9686192,12.4500506 70.0783106,12.4137918 C71.654485,12.3624988 72.846708,13.1336626 73.0817436,14.7104803 C73.2898668,16.1006977 73.2988377,17.564317 73.096994,18.9527656 L73.096994,18.9527656 Z M72.3147379,8.4155904 C70.3384646,8.20776529 68.6277278,8.79763486 67.1816304,10.5115287 L67.1816304,0 L61.9471525,0.624359691 L61.9471525,24.9558161 L67.1816304,24.9558161 L67.1816304,23.5116526 C67.8876345,24.0086642 68.5747999,24.606493 69.378586,24.8903733 C72.4286674,25.9684107 76.4502894,25.0893547 77.8578122,21.0672756 C78.7611746,18.4875911 78.7378504,15.8415795 78.0578617,13.2327111 C77.3034151,10.3337719 75.3468776,8.73396078 72.3147379,8.4155904 L72.3147379,8.4155904 Z" id="Fill-14"></path>
                <path d="M91.0897828,18.6918788 C91.0727383,18.7988866 91.0538995,18.9050101 91.0296783,19.0102492 C90.6816102,20.5331208 89.5602568,21.3573464 88.0648198,21.2883661 C86.4563504,21.2158484 85.3538357,20.2890369 85.1986404,18.7051442 C85.0865051,17.5483985 85.0775342,16.3668907 85.1753162,15.2083762 C85.3278203,13.3803996 86.4868512,12.3810704 88.2262947,12.4146761 C89.6562446,12.4420914 90.6744335,13.2406704 91.037752,14.5955132 C91.3669814,15.9583153 91.1220778,18.3814677 91.0897828,18.6918788 L91.0897828,18.6918788 Z M90.8682034,8.71627354 C89.0489196,8.23606488 87.2116941,8.24225542 85.3968957,8.71892663 C82.6787349,9.4326069 80.8567599,11.1279292 80.2700678,13.8252338 C79.9498092,15.2959281 79.8861163,16.8612491 79.9704421,18.369971 C80.164212,21.8216365 82.3288727,24.2801634 85.6902418,25.0433679 C85.7368901,25.0548646 85.7862296,25.0628239 85.833775,25.0743206 L85.8328779,25.0743206 C85.8328779,25.0743206 85.8427458,25.0760893 85.8579962,25.0787424 C85.9871761,25.1043889 86.1163561,25.1282667 86.2464331,25.1477226 C86.289493,25.1512601 86.3343472,25.1547975 86.3765101,25.158335 L86.3800984,25.158335 C86.5433674,25.1884033 86.7389315,25.2105124 86.9443634,25.2264309 C87.6019251,25.2954111 88.4398004,25.344051 89.1386279,25.2626897 C89.1431133,25.2626897 89.1458045,25.2618054 89.1493928,25.260921 C89.1843791,25.260921 89.2202624,25.260921 89.2561457,25.2582679 C92.7260618,25.0805111 95.3589997,22.9235518 96.1277996,19.6151529 C96.5494285,17.8004417 96.5494285,15.9760026 96.1412558,14.1604071 C95.50343,11.3101078 93.7496332,9.47594064 90.8682034,8.71627354 L90.8682034,8.71627354 Z" id="Fill-15"></path>
                <path d="M12.2801658,8.63049041 L8.54291907,8.63049041 L8.54291907,6.1808072 C8.81652931,3.86554704 12.6964122,4.30507504 12.6964122,4.30507504 L12.6973093,4.14677421 L12.6964122,4.12908697 L12.6964122,0.325445278 L12.6955151,0.325445278 L12.6955151,0.324560916 L12.6928239,0.324560916 C12.5591586,0.29360824 4.97432387,-1.48130663 3.46812193,4.20956393 C3.46812193,4.21044829 3.46812193,4.21221701 3.46632776,4.21398574 C3.46363651,4.22636681 3.4591511,4.23874788 3.45645985,4.25112895 C3.21963,4.96304049 3.23577749,8.22103073 3.23846874,8.63049041 L0,8.63049041 L0,12.9877428 L3.43941528,12.9877428 L3.43941528,24.8390802 L8.44782829,24.8390802 L8.44782829,12.9877428 L12.2792687,12.9877428 L12.7107655,8.63049041 L12.2801658,8.63049041" id="Fill-16"></path>
                <path d="M23.794223,18.9297722 C23.6300568,20.4384941 22.3911855,21.3449653 20.9271465,21.2883661 C19.426327,21.2308826 18.4341535,20.4384941 18.1094096,19.0199772 C17.7209727,17.000094 18.1757937,14.6008194 18.2143682,14.4062597 C18.6063934,13.0514169 19.6066407,12.380186 21.0742681,12.4146761 C22.514983,12.4465132 23.6255714,13.2866572 23.7879434,14.7582359 C23.9404475,16.1351878 23.9440358,17.551936 23.794223,18.9297722 L23.794223,18.9297722 Z M24.2239256,10.714932 C24.162924,10.6486049 24.1019224,10.5840464 24.0498916,10.5301003 L24.0498916,10.529216 C24.0409207,10.5203724 24.0346411,10.5132975 24.0265674,10.5053382 C23.9530066,10.4310518 23.9018729,10.3806431 23.9018729,10.3806431 C22.7231062,9.19825092 22.2781531,8.90464268 21.3541579,8.63579658 C17.8017102,7.60463029 14.3434562,9.43791307 13.2481181,12.961212 C12.575306,15.1270149 12.5654381,17.3556076 12.9601545,19.5479414 C13.8123832,24.2960819 17.3944346,25.8861651 21.2133159,25.1026202 C22.3840089,24.8620737 23.2550762,24.1422029 24.0624507,23.1411049 C24.0624507,23.1411049 24.1360115,23.053553 24.2248227,22.8828711 L24.2248227,24.9717346 L29.1103354,24.9717346 L29.1103354,8.64906201 L24.2248227,8.64906201 L24.2248227,10.714932 L24.2239256,10.714932 L24.2239256,10.714932 Z" id="Fill-17"></path>
                <path d="M44.0324099,23.8026078 C43.805448,22.9845728 43.5479852,22.1780345 43.2976991,21.3997958 L43.0626634,20.5331208 C43.0626634,20.5331208 36.9382795,23.4311757 35.9837834,17.9242524 C35.8949722,17.0160125 35.9227818,16.0777042 36.0492705,15.180961 C36.2878945,13.4882918 37.3347901,12.5818206 39.0015698,12.4261728 C39.5649378,12.3731111 40.1498357,12.4005263 40.7078212,12.4933844 C41.4667532,12.6198482 42.2077436,12.8444761 43.0384422,13.0469951 C43.3264058,12.1758983 43.6224431,11.3145296 43.8969504,10.4469703 C43.9400104,10.3116629 43.9767908,10.1940427 44.0046003,10.0888036 L44.0054974,10.0888036 L44.1427511,9.56791431 C44.1086619,9.49893406 44.0252332,9.42730072 43.9130979,9.35655175 C43.9130979,9.35655175 43.9130979,9.35655175 43.9130979,9.35743611 C43.7722559,9.24158467 43.5327348,9.14430483 43.1577542,9.00988178 C43.0079414,8.95593569 42.8572315,8.90729577 42.7074187,8.86130894 C42.5728563,8.81885955 42.4849421,8.79409741 42.4849421,8.79409741 L42.4858392,8.79409741 C40.8764728,8.34041962 39.2249434,8.30592949 37.5473987,8.48014884 C34.0110985,8.8480435 31.6114021,10.9059543 30.9448696,14.301905 C30.5959044,16.0883166 30.6120519,17.8968372 31.0130479,19.6894393 C31.6140933,22.3734785 33.2638285,24.1077127 35.947003,24.8832984 C37.6981086,25.3891535 39.491377,25.4139157 41.2765717,25.1397634 C42.0274299,25.0239119 43.1039292,24.6409831 43.8763175,24.3668308 L44.1705606,24.2651292 L44.0315128,23.8008391 L44.0324099,23.8026078" id="Fill-18"></path>
                <path d="M55.4433025,15.190689 L49.7871958,15.190689 C49.8167995,14.0816988 49.9576415,13.0505325 50.9569917,12.4226354 C52.0191377,11.757595 53.1925219,11.7328329 54.2851687,12.328893 C55.3894776,12.9302593 55.4755975,14.016256 55.4433025,15.190689 L55.4433025,15.190689 Z M60.152987,17.4166286 C60.1287658,16.2864137 60.1449132,15.1508927 59.9825413,14.0410182 C59.5357941,10.9952748 57.6555086,9.06913405 54.613501,8.56504761 C53.4526759,8.37402538 52.2254667,8.39967188 51.0467,8.51021715 C47.8189962,8.81355338 45.3681661,10.7962934 44.8666969,13.7783626 C44.5616887,15.5877676 44.5222171,17.5086022 44.7689148,19.3250821 C45.1412042,22.0595299 46.4913137,23.8008391 48.8273172,24.6365613 L48.8282143,24.6365613 C48.8389793,24.6365613 48.8488472,24.63833 48.8587151,24.6400988 C48.857818,24.6409831 48.8587151,24.6409831 48.857818,24.6418675 C49.9244494,24.9558161 55.1427798,26.3009309 59.7421231,24.022814 L59.5582211,23.3551205 C59.556427,23.3560049 59.5528386,23.3560049 59.5510445,23.3560049 C59.3384358,22.4663365 59.0818702,21.5846275 58.841452,20.702034 L58.8154366,20.6153665 C58.8154366,20.6153665 58.7194487,20.6489723 58.5499001,20.7029184 C58.5463118,20.7029184 58.5418264,20.7029184 58.538238,20.7038027 C58.3372915,20.7550957 58.1390362,20.8161167 57.941678,20.8815595 C57.9048976,20.8930562 57.8690143,20.904553 57.8322339,20.9151653 C57.1352006,21.1079563 56.1403358,21.346734 55.0889548,21.4802727 C54.2071225,21.5678246 53.3154222,21.571362 52.4156482,21.4953069 C50.9551975,21.2574135 49.8365353,20.4853653 49.8903603,18.6618105 L50.7255443,18.6618105 L59.3169059,18.6618105 C59.3850842,18.6618105 59.4541595,18.6618105 59.5223378,18.6609261 L59.5214407,18.6618105 C59.5214407,18.6618105 60.1368395,18.6547356 60.1619578,18.6485451 L60.1619578,18.4690195 L60.152987,17.4166286 L60.152987,17.4166286 Z" id="Fill-19"></path>
                <polyline id="Fill-20" points="131.541935 8.81885955 125.988096 8.81885955 121.165379 16.2528079 121.165379 0.0141497947 115.930004 0.640278211 115.930004 24.9717346 121.165379 24.9717346 121.165379 17.5254051 125.988096 24.9823469 131.541935 24.9823469 126.307458 16.88778 131.541935 8.81885955"></polyline>
                <path d="M108.944421,18.6883414 C108.927376,18.7962335 108.909435,18.902357 108.884316,19.0084805 C108.535351,20.5304678 107.414895,21.3538089 105.919458,21.2857131 C104.311886,21.212311 103.208474,20.2854994 103.053278,18.7024912 C102.941143,17.5457454 102.931275,16.3642376 103.029057,15.2066075 C103.184253,13.3777465 104.342386,12.3784173 106.082727,12.412023 C107.509986,12.4394383 108.529072,13.2380173 108.89239,14.5928602 C109.220722,15.9547779 108.977613,18.3788146 108.944421,18.6883414 L108.944421,18.6883414 Z M108.723739,8.71362045 C106.904455,8.2334118 105.066332,8.23960233 103.251534,8.71627354 C100.53427,9.42995381 98.712295,11.1252761 98.1256029,13.8216963 C97.8053443,15.293275 97.7416515,16.8577117 97.8259772,18.3664335 C98.01885,21.8180991 100.184408,24.2775103 103.543983,25.0407148 C103.592425,25.0522115 103.641765,25.0601708 103.68931,25.0707831 L103.688413,25.0707831 C103.688413,25.0707831 103.696487,25.0725519 103.711737,25.0760893 C103.840917,25.1008514 103.971891,25.1247292 104.101968,25.1441852 C104.145028,25.1477226 104.188985,25.1521445 104.232045,25.1547975 C104.232942,25.1556819 104.234736,25.1556819 104.235634,25.1556819 C104.3998,25.1857502 104.594467,25.2078593 104.799001,25.2237778 C105.45746,25.292758 106.296233,25.3422823 106.994163,25.260921 C106.997751,25.2591523 106.999545,25.2591523 107.004928,25.2582679 C107.040811,25.2573836 107.075798,25.2573836 107.110784,25.2556148 C110.5807,25.077858 113.214535,22.9200143 113.983335,19.6124998 C114.404964,17.7977887 114.404964,15.9733495 113.998585,14.157754 C113.358068,11.3065703 111.605168,9.47328756 108.723739,8.71362045 L108.723739,8.71362045 Z" id="Fill-21"></path>
            </g>
        </g>
    </g>
</svg>