<?xml version="1.0" encoding="utf-8"?>
<!-- Generator: Adobe Illustrator 24.0.1, SVG Export Plug-In . SVG Version: 6.00 Build 0)  -->
<svg version="1.1" id="Layer_1" xmlns="http://www.w3.org/2000/svg" xmlns:xlink="http://www.w3.org/1999/xlink" x="0px" y="0px"
	 viewBox="0 0 1203 614" style="enable-background:new 0 0 1203 614;" xml:space="preserve">
<style type="text/css">
	.st0{fill:#FFFFFF;}
	.st1{fill:#FF5C5C;}
	.st2{fill:#CB3737;}
	.st3{fill:#F84848;}
</style>
<g>
	<g>
		<polygon class="st0" points="791.2,445.56 778.21,445.56 778.21,563.69 845.31,563.69 845.31,550.63 791.2,550.63 		"/>
		<path class="st0" d="M1150.63,506.3c-2.39-2.38-5.55-4.75-9.4-7.06c-3.71-2.22-8.17-4.49-13.25-6.74
			c-7.57-3.41-12.82-6.2-15.14-8.04c-3.95-3.39-5.87-7.18-5.87-11.6c0-5.04,1.8-8.98,5.52-12.05c3.56-2.99,7.96-4.45,13.48-4.45
			c5.28,0,9.6,1.02,12.86,3.05c2.47,1.41,4.65,3.63,6.46,6.61l1.5,2.46l12.2-5.29l-1.76-3.16c-6.13-11-16.65-16.58-31.27-16.58
			c-8.87,0-16.46,2.72-22.54,8.07c-6.38,5.38-9.61,12.56-9.61,21.35c0,8.77,3.16,15.94,9.38,21.28c3.58,3.22,9.91,6.82,19.36,11.02
			c4.67,2.06,8.55,3.94,11.54,5.57c2.83,1.55,4.93,2.95,6.26,4.18c4.93,4.35,7.33,9.66,7.33,16.22c0,6.98-1.97,12.07-6.03,15.56
			c-4.03,3.46-9.8,5.22-17.12,5.22c-12.78,0-20.59-5.84-23.9-17.84l-0.93-3.37l-12.9,4.37l0.93,3.04
			c5.44,17.83,17.82,26.88,36.8,26.88c5.98,0,11.29-0.81,15.82-2.43c13.59-5.04,20.48-15.62,20.48-31.42
			C1160.85,521.27,1157.41,512.92,1150.63,506.3z"/>
		<g>
			<path class="st0" d="M921.06,445.63h-8.59L866.51,563.7h13.47l11.12-28.54h51.42l11.01,28.54h13.65l-45.85-117.37L921.06,445.63z
				 M916.76,469.31l20.56,52.78H896.2L916.76,469.31z"/>
			<path class="st0" d="M1053.23,504.95c-3.84-4.39-8.62-7.68-14.23-9.8c5.38-5.06,8.11-11.17,8.11-19.57
				c0-9.47-3.12-17.02-9.29-22.45c-5.73-4.99-13.44-7.52-22.92-7.52h-30.64V563.7h38.35c10.64,0,19.79-3.33,27.18-9.88
				c7.52-6.56,11.33-15.9,11.33-26.41C1061.11,518.63,1058.46,511.08,1053.23,504.95z M997.07,458.51h18.29
				c5.42,0,9.86,1.58,13.62,4.85c0.03,0.03,0.07,0.06,0.11,0.09c7.05,6.07,7.17,16.91,0.49,23.38c-0.14,0.14-0.28,0.27-0.41,0.39
				c-3.39,3.19-7.59,4.74-12.86,4.74h-19.23L997.07,458.51L997.07,458.51z M1040.91,544.4c-4.99,4.3-10.93,6.39-18.16,6.39h-25.68
				v-45.94h25.68c7.23,0,13.29,2.05,18.04,6.12c5.04,4.19,7.48,9.56,7.48,16.43C1048.28,534.18,1045.87,540.2,1040.91,544.4z"/>
		</g>
		<polygon class="st0" points="101.18,504.15 50.25,446.17 42.41,446.17 42.41,563.71 65.92,563.71 65.92,495.53 101.18,534.72 
			136.45,495.53 136.53,563.71 160.03,563.71 160.03,446.17 152.2,446.17 		"/>
		<path class="st0" d="M236.42,446.17L189.4,563.71h25.08l7.05-18.02h53.29l7.05,18.02l25-0.08l-46.94-117.46H236.42z
			 M230.93,522.18l17.87-44.67l17.4,44.67H230.93z"/>
		<polygon class="st0" points="542.7,504.15 491.76,446.17 483.93,446.17 483.93,563.71 507.44,563.71 507.44,495.53 542.7,534.72 
			577.96,495.53 578.04,563.71 601.55,563.71 601.55,446.17 593.71,446.17 		"/>
		<path class="st0" d="M701.7,446.17h-23.51l-47.02,117.54h25.08l7.05-18.02h53.29l7.05,18.02l25-0.08L701.7,446.17z M672.71,522.18
			l17.87-44.67l17.4,44.67H672.71z"/>
		<path class="st0" d="M393.53,497.66v23.98h33.09c-6.43,14.09-20.63,23.9-37.13,23.9c-22.53,0-40.8-18.27-40.8-40.8
			s18.27-40.8,40.8-40.8c13.57,0,25.59,6.63,33.01,16.83l19.09-14.18c-12.66-16.92-30.22-26.83-52.18-26.83
			c-46.96,0-64.98,43.6-64.98,64.98c0,18.49,7.38,33.9,19.31,45.83c11.82,11.83,27.19,19.16,45.68,19.16
			c19.37,0,35.25-7.74,47.18-20.37c22.33-23.72,17.39-51.69,17.39-51.69h-60.46V497.66z"/>
	</g>
	<g>
		<g>
			<g>
				<polygon class="st1" points="567.46,210.42 533.33,151.51 396.77,387.14 465.05,387.14 				"/>
			</g>
			<g>
				<polygon class="st2" points="738.16,269.33 704.02,328.23 738.21,387.23 806.49,387.24 				"/>
			</g>
			<polygon class="st3" points="669.88,151.51 567.46,328.23 601.6,387.14 704.02,210.42 			"/>
		</g>
		<g>
			<polygon class="st2" points="601.6,151.51 635.74,92.6 601.6,33.7 567.46,92.6 			"/>
		</g>
	</g>
</g>
</svg>
