<?xml version="1.0" encoding="utf-8"?>
<!-- Generator: Adobe Illustrator 22.1.0, SVG Export Plug-In . SVG Version: 6.00 Build 0)  -->
<svg version="1.1" id="Layer_1" xmlns="http://www.w3.org/2000/svg" xmlns:xlink="http://www.w3.org/1999/xlink" x="0px" y="0px"
	 viewBox="0 0 862 106" style="enable-background:new 0 0 862 106;" xml:space="preserve">
<style type="text/css">
	.st0{fill:#FFFFFF;}
</style>
<g>
	<g>
		<path class="st0" d="M397.6,13.2c-1.7,0-3-1.3-3-3V2.6c0-1.7,1.3-3,3-3s3,1.3,3,3v7.6C400.6,11.8,399.2,13.2,397.6,13.2z"/>
	</g>
	<g>
		<path class="st0" d="M409.3,16.1c-0.6,0-1.2-0.2-1.7-0.6c-1.3-1-1.7-2.8-0.7-4.2l4.5-6.3c1-1.3,2.8-1.7,4.2-0.7
			c1.3,1,1.7,2.8,0.7,4.2l-4.5,6.3C411.2,15.6,410.2,16.1,409.3,16.1z"/>
	</g>
	<g>
		<path class="st0" d="M385.9,16.1c-0.9,0-1.9-0.4-2.4-1.3L379,8.5c-1-1.3-0.7-3.2,0.7-4.2c1.3-1,3.2-0.7,4.2,0.7l4.5,6.3
			c1,1.3,0.7,3.2-0.7,4.2C387.1,15.9,386.5,16.1,385.9,16.1z"/>
	</g>
</g>
<g>
	<g>
		<path class="st0" d="M382,105.6c-2.6,0-5.3-1-7.3-3s-3-4.7-3-7.3l0,0c-2.6,0-5.3-1-7.3-3c-4-4-4-10.6,0-14.6
			c3.3-3.3,8.3-3.9,12.2-1.8l27.6-27.6c-0.8-1.5-1.2-3.1-1.2-4.9c0-2.8,1.1-5.4,3-7.3c4-4,10.6-4,14.6,0c2,2,3,4.7,3,7.3l0,0
			c2.6,0,5.3,1,7.3,3c4,4,4,10.6,0,14.6c-2,2-4.5,3-7.3,3c-1.7,0-3.4-0.4-4.9-1.2l-27.6,27.6c2.1,3.9,1.5,8.9-1.8,12.2
			C387.3,104.6,384.7,105.6,382,105.6z M378.9,92.2c-1.7,1.7-1.7,4.4,0,6.1c0.8,0.8,1.9,1.3,3.1,1.3s2.2-0.5,3.1-1.3
			c0.8-0.8,1.3-1.9,1.3-3.1s-0.5-2.2-1.3-3.1c-1.2-1.2-1.2-3.1,0-4.2l31.2-31.2c0.6-0.6,1.3-0.9,2.1-0.9l0,0c0.8,0,1.6,0.3,2.1,0.9
			c0.8,0.8,1.9,1.3,3.1,1.3s2.2-0.5,3.1-1.3c1.7-1.7,1.7-4.4,0-6.1c-1.7-1.7-4.4-1.7-6.1,0c-1.2,1.2-3.1,1.2-4.2,0
			c-0.6-0.6-0.9-1.4-0.9-2.1s0.3-1.5,0.9-2.1c1.7-1.7,1.7-4.4,0-6.1s-4.4-1.7-6.1,0c-0.8,0.8-1.3,1.9-1.3,3.1c0,1.2,0.5,2.2,1.3,3.1
			c1.2,1.2,1.2,3.1,0,4.2l-31.2,31.2c-1.2,1.2-3.1,1.2-4.2,0c-1.7-1.7-4.4-1.7-6.1,0s-1.7,4.4,0,6.1s4.4,1.7,6.1,0
			c1.2-1.2,3.1-1.2,4.2,0c0.6,0.6,0.9,1.4,0.9,2.1S379.5,91.7,378.9,92.2z"/>
	</g>
	<g>
		<path class="st0" d="M379.6,64.8c-0.8,0-1.5-0.3-2.1-0.9l-1-1c-1.5,0.8-3.1,1.2-4.9,1.2c-2.8,0-5.4-1.1-7.3-3c-4-4-4-10.6,0-14.6
			c2-2,4.7-3,7.4-3c0-2.7,1-5.3,3-7.3c4-4,10.6-4,14.6,0c2,2,3,4.5,3,7.3c0,1.7-0.4,3.4-1.2,4.9l1,1c1.2,1.2,1.2,3.1,0,4.2
			c-1.2,1.2-3.1,1.2-4.2,0l-2.8-2.8c-1.2-1.2-1.2-3.1,0-4.2c0.8-0.8,1.3-1.9,1.3-3.1c0-1.2-0.5-2.2-1.3-3.1c-1.7-1.7-4.4-1.7-6.1,0
			s-1.7,4.4,0,6.1c0.6,0.6,0.9,1.4,0.9,2.1s-0.3,1.5-0.9,2.1c-1.2,1.2-3.1,1.2-4.2,0c-1.7-1.7-4.4-1.7-6.1,0s-1.7,4.4,0,6.1
			c0.8,0.8,1.9,1.3,3.1,1.3s2.2-0.5,3.1-1.3c1.1-1.1,3.1-1.1,4.2,0l2.8,2.8c1.2,1.2,1.2,3.1,0,4.2C381.2,64.5,380.4,64.8,379.6,64.8
			z"/>
	</g>
	<g>
		<path class="st0" d="M413.2,105.6c-2.6,0-5.3-1-7.3-3c-3.3-3.3-3.9-8.3-1.8-12.2l-1-1c-1.2-1.2-1.2-3.1,0-4.2
			c1.2-1.2,3.1-1.2,4.2,0l2.8,2.8c1.2,1.2,1.2,3.1,0,4.2c-1.7,1.7-1.7,4.4,0,6.1s4.4,1.7,6.1,0s1.7-4.4,0-6.1
			c-0.6-0.6-0.9-1.4-0.9-2.1c0-0.8,0.3-1.5,0.9-2.1c1.2-1.2,3.1-1.2,4.2,0c0.8,0.8,1.9,1.3,3.1,1.3s2.2-0.5,3.1-1.3
			c1.7-1.7,1.7-4.4,0-6.1s-4.4-1.7-6.1,0c-1.2,1.2-3.1,1.2-4.2,0l-2.8-2.8c-1.2-1.2-1.2-3.1,0-4.2c1.2-1.2,3.1-1.2,4.2,0l1,1
			c3.9-2.1,8.9-1.5,12.2,1.8c4,4,4,10.6,0,14.6c-2,2-4.5,3-7.3,3l0,0c0,2.7-1,5.3-3,7.3C418.5,104.6,415.8,105.6,413.2,105.6z"/>
	</g>
</g>
<g>
	<path class="st0" d="M0.9,43.9h14.8c0.6,0,1,0.5,1,1v13.8c0,1.3,1.7,1.9,2.5,0.8l11.6-15.2c0.2-0.3,0.5-0.4,0.8-0.4h17.5
		c0.6,0,1,0.7,0.6,1.2L33.4,65.4c-0.2,0.3-0.2,0.6-0.1,0.9l16.9,26.9c0.3,0.5,0,1.2-0.6,1.2H31.5c-0.4,0-0.7-0.2-0.9-0.5L22.1,80
		c-0.5-0.8-1.6-0.9-2.2-0.2L17.3,83c-0.3,0.4-0.5,0.8-0.5,1.3v9c0,0.6-0.5,1-1,1H0.9c-0.6,0-1-0.5-1-1V45
		C-0.1,44.4,0.3,43.9,0.9,43.9z"/>
	<path class="st0" d="M132.9,43.9h14.8c0.6,0,1,0.5,1,1v13.8c0,1.3,1.7,1.9,2.5,0.8l11.6-15.2c0.2-0.3,0.5-0.4,0.8-0.4h17.5
		c0.6,0,1,0.7,0.6,1.2l-16.2,20.2c-0.2,0.3-0.2,0.6-0.1,0.9l16.9,26.9c0.3,0.5,0,1.2-0.6,1.2h-18.1c-0.4,0-0.7-0.2-0.9-0.5L154.1,80
		c-0.5-0.8-1.6-0.9-2.2-0.2l-2.6,3.2c-0.3,0.4-0.5,0.8-0.5,1.3v9c0,0.6-0.5,1-1,1H133c-0.6,0-1-0.5-1-1V45
		C131.9,44.4,132.3,43.9,132.9,43.9z"/>
	<path class="st0" d="M56.3,43.9H71c0.6,0,1.1,0.5,1.1,1.1v48.2c0,0.6-0.5,1.1-1.1,1.1H56.3c-0.6,0-1.1-0.5-1.1-1.1V45
		C55.2,44.4,55.7,43.9,56.3,43.9z"/>
	<path class="st0" d="M206.5,43.8h14c0.8,0,1.6,0.5,1.9,1.2l20.2,48.3c0.3,0.6-0.2,1.3-0.8,1.3h-16.3c-0.4,0-0.7-0.2-0.8-0.6
		l-1.9-4.9c-0.3-0.8-1.1-1.3-1.9-1.3H206c-0.8,0-1.6,0.5-1.9,1.3l-1.9,4.9c-0.1,0.4-0.5,0.6-0.9,0.6h-16c-0.7,0-1.1-0.7-0.8-1.3
		L204.7,45C205,44.3,205.7,43.8,206.5,43.8z M217.7,74.9l-3.7-9.8c-0.2-0.5-0.9-0.5-1.1,0l-3.7,9.8c-0.2,0.4,0.2,0.9,0.6,0.9h7.3
		C217.5,75.8,217.8,75.3,217.7,74.9z"/>
	<path class="st0" d="M76.9,69.3L76.9,69.3c0-13.7,10.3-25.1,23.8-26.3c12.4-1,20.7,4.3,25.4,12.3c0.2,0.4,0.1,0.8-0.3,1l-12.6,7.4
		c-0.4,0.2-0.8,0.1-1-0.3c-1.9-3.2-4.5-5.4-8.8-5.4c-5.7,0-9.4,5-9.4,11v0.1c0,6.6,3.9,11.2,9.4,11.2c4.5,0,7.1-2.3,9.1-5.7
		c0.2-0.4,0.7-0.5,1-0.3l12.6,7.1c0.4,0.2,0.5,0.7,0.3,1.1c-4.3,7.2-11.3,12.9-23.4,12.9C89.1,95.4,76.9,84.9,76.9,69.3z"/>
	<path class="st0" d="M267.5,61.8c-0.9-0.2-1.6-0.3-2.3-0.5c-1.3-0.4-3-1.3-2.8-2.9c0.2-1.5,1.7-2,2.9-2c4.1,0.2,8.8,1.4,13,4.1
		c0.7,0.5,1.7,0.3,2.2-0.4l6.3-8.7c0.5-0.8,0.4-1.8-0.4-2.4c-5.5-4-12.4-6-21.3-6c-13.9,0-21.4,7.4-21.4,17v0.1
		c0,10.7,9.9,13.9,21.2,16.2c0.7,0.1,1.3,0.3,1.8,0.4c1.2,0.3,3.8,1.3,3.5,3.3c-0.3,1.7-2.8,1.9-4.1,1.9c-0.1,0-0.3,0-0.4,0
		c-0.2,0-0.3,0-0.3,0l0,0c-4.8-0.4-9.8-1.9-14.3-5c-0.7-0.5-1.6-0.3-2.2,0.3l-6.9,8.2c-0.6,0.7-0.5,1.8,0.3,2.4
		c6.3,4.9,15,7.4,24.5,7.4c13.5,0,22.2-6.5,22.2-17.1V78C289,67.9,280.4,64.2,267.5,61.8z"/>
	<path class="st0" d="M315.5,61.8c-0.9-0.2-1.6-0.3-2.3-0.5c-1.3-0.4-3-1.3-2.8-2.9c0.2-1.5,1.7-2,2.9-2c4.1,0.2,8.8,1.4,13,4.1
		c0.7,0.5,1.7,0.3,2.2-0.4l6.3-8.7c0.5-0.8,0.4-1.8-0.4-2.4c-5.5-4-12.4-6-21.3-6c-13.9,0-21.4,7.4-21.4,17v0.1
		c0,10.7,9.9,13.9,21.2,16.2c0.7,0.1,1.3,0.3,1.8,0.4c1.2,0.3,3.8,1.3,3.5,3.3c-0.3,1.7-2.8,1.9-4.1,1.9c-0.1,0-0.3,0-0.4,0
		c-0.2,0-0.3,0-0.3,0l0,0c-4.8-0.4-9.8-1.9-14.3-5c-0.7-0.5-1.6-0.3-2.2,0.3l-6.9,8.2c-0.6,0.7-0.5,1.8,0.3,2.4
		c6.3,4.9,15,7.4,24.5,7.4c13.5,0,22.2-6.5,22.2-17.1V78C337,67.9,328.4,64.2,315.5,61.8z"/>
</g>
<g>
	<path class="st0" d="M521.6,43.8h14c0.8,0,1.6,0.5,1.9,1.2l20.2,48.3c0.3,0.6-0.2,1.3-0.8,1.3h-16.3c-0.4,0-0.7-0.2-0.8-0.6
		l-1.9-4.9c-0.3-0.8-1.1-1.3-1.9-1.3h-15c-0.8,0-1.6,0.5-1.9,1.3l-1.9,4.9c-0.1,0.4-0.5,0.6-0.9,0.6h-16c-0.7,0-1.1-0.7-0.8-1.3
		L519.7,45C520,44.3,520.7,43.8,521.6,43.8z M532.7,74.9l-3.7-9.8c-0.2-0.5-0.9-0.5-1.1,0l-3.7,9.8c-0.2,0.4,0.2,0.9,0.6,0.9h7.3
		C532.5,75.8,532.9,75.3,532.7,74.9z"/>
	<path class="st0" d="M461.1,45.1c0-0.7,0.5-1.2,1.2-1.2h21.5c13.4,0,22.5,6,22.5,17.9V62c0,12.2-9.3,18.6-22.9,18.6h-4.7
		c-0.4,0-0.8,0.3-0.8,0.8v11.7c0,0.7-0.5,1.2-1.2,1.2h-14.5c-0.7,0-1.2-0.5-1.2-1.2v-48H461.1z M482.5,68.6c4.3,0,7.2-1.9,7.2-5.5
		V63c0-3.7-2.7-5.5-7.1-5.5h-3.8c-0.4,0-0.8,0.3-0.8,0.8V68c0,0.4,0.3,0.8,0.8,0.8h3.7V68.6z"/>
	<path class="st0" d="M561,45.3c0-0.8,0.6-1.4,1.4-1.4h23.2c8.9,0,14.6,2.2,18.1,5.8c3,3,4.6,6.8,4.6,12v0.1
		c0,6.9-3.4,11.9-8.9,14.9c-0.5,0.3-0.7,1-0.3,1.5l9.7,14.1c0.6,0.9,0,2-1.1,2h-15.3c-0.9,0-1.8-0.5-2.3-1.3l-8.3-12.6
		c-0.2-0.3-0.6-0.5-1-0.5h-1.6c-0.8,0-1.4,0.6-1.4,1.4V93c0,0.8-0.6,1.4-1.4,1.4h-14.1c-0.8,0-1.4-0.6-1.4-1.4L561,45.3L561,45.3z
		 M585.1,67.9c4,0,6.5-1.8,6.5-4.9v-0.1c0-3.2-2.5-4.8-6.4-4.8h-6.1c-0.7,0-1.2,0.5-1.2,1.2v7.4c0,0.7,0.5,1.2,1.2,1.2H585.1z"/>
	<path class="st0" d="M765.7,45.3c0-0.8,0.6-1.4,1.4-1.4h23.2c8.9,0,14.6,2.2,18.1,5.8c3,3,4.6,6.8,4.6,12v0.1
		c0,6.9-3.4,11.9-8.9,14.9c-0.5,0.3-0.7,1-0.3,1.5l9.7,14.1c0.6,0.9,0,2-1.1,2h-15.3c-0.9,0-1.8-0.5-2.3-1.3l-8.3-12.6
		c-0.2-0.3-0.6-0.5-1-0.5h-1.6c-0.8,0-1.4,0.6-1.4,1.4V93c0,0.8-0.6,1.4-1.4,1.4H767c-0.8,0-1.4-0.6-1.4-1.4L765.7,45.3L765.7,45.3z
		 M789.8,67.9c4,0,6.5-1.8,6.5-4.9v-0.1c0-3.2-2.5-4.8-6.4-4.8h-6.1c-0.7,0-1.2,0.5-1.2,1.2v7.4c0,0.7,0.5,1.2,1.2,1.2H789.8z"/>
	<path class="st0" d="M624.9,58.2h-12.6c-0.6,0-1.1-0.5-1.1-1.1v-12c0-0.6,0.5-1.1,1.1-1.1h44.2c0.6,0,1.1,0.5,1.1,1.1v12
		c0,0.6-0.5,1.1-1.1,1.1h-12.6c-0.6,0-1.1,0.5-1.1,1.1v33.9c0,0.6-0.5,1.2-1.2,1.2h-14.5c-0.6,0-1.2-0.5-1.2-1.2V59.3
		C626,58.7,625.5,58.2,624.9,58.2z"/>
	<path class="st0" d="M663.2,43.9h12.5c1.3,0,2.6,0.6,3.4,1.6l14.8,18.4c0.6,0.8,1.8,0.3,1.8-0.6V45.1c0-0.6,0.5-1.1,1.1-1.1h14.4
		c0.6,0,1.1,0.5,1.1,1.1v48.1c0,0.6-0.5,1.1-1.1,1.1h-11.7c-1.3,0-2.6-0.6-3.4-1.6l-15.6-19.4c-0.6-0.8-1.8-0.3-1.8,0.6v19.2
		c0,0.6-0.5,1.1-1.1,1.1h-14.4c-0.6,0-1.1-0.5-1.1-1.1v-48C662,44.5,662.5,43.9,663.2,43.9z"/>
	<path class="st0" d="M718.5,43.9h40.7c0.6,0,1.2,0.5,1.2,1.2v11.5c0,0.6-0.5,1.2-1.2,1.2H735c-0.6,0-1.2,0.5-1.2,1.2v2.8
		c0,0.6,0.5,1.2,1.2,1.2h22.3c0.6,0,1.2,0.5,1.2,1.2V74c0,0.6-0.5,1.2-1.2,1.2H735c-0.6,0-1.2,0.5-1.2,1.2v3.1
		c0,0.6,0.5,1.2,1.2,1.2h24.5c0.6,0,1.2,0.5,1.2,1.2v11.5c0,0.6-0.5,1.2-1.2,1.2h-41c-0.6,0-1.2-0.5-1.2-1.2V45.1
		C717.3,44.5,717.8,43.9,718.5,43.9z"/>
	<path class="st0" d="M840.5,61.8c-0.9-0.2-1.6-0.3-2.3-0.5c-1.3-0.4-3-1.3-2.8-2.9c0.2-1.5,1.7-2,2.9-2c4.1,0.2,8.8,1.4,13,4.1
		c0.7,0.5,1.7,0.3,2.2-0.4l6.3-8.7c0.5-0.8,0.4-1.8-0.4-2.4c-5.6-4-12.4-6-21.4-6c-13.9,0-21.4,7.4-21.4,17v0.1
		c0,10.7,9.9,13.9,21.2,16.2c0.7,0.1,1.3,0.3,1.8,0.4c1.2,0.3,3.8,1.3,3.5,3.3c-0.3,1.7-2.8,1.9-4.1,1.9c-0.1,0-0.3,0-0.4,0
		c-0.2,0-0.3,0-0.3,0l0,0c-4.8-0.4-9.8-1.9-14.3-5c-0.7-0.5-1.6-0.3-2.2,0.3l-6.9,8.2c-0.6,0.7-0.5,1.8,0.3,2.4
		c6.3,4.9,15,7.4,24.5,7.4c13.5,0,22.2-6.5,22.2-17.1V78C862,67.9,853.4,64.2,840.5,61.8z"/>
</g>
</svg>
