<?xml version="1.0" encoding="UTF-8"?>
<svg width="221px" height="33px" viewBox="0 0 221 33" version="1.1" xmlns="http://www.w3.org/2000/svg" xmlns:xlink="http://www.w3.org/1999/xlink">
    <!-- Generator: Sketch 51.1 (57501) - http://www.bohemiancoding.com/sketch -->
    <title>Group</title>
    <desc>Created with Sketch.</desc>
    <defs>
        <polygon id="path-1" points="0 0.230377758 12.9056574 0.230377758 12.9056574 13.1315322 0 13.1315322"></polygon>
        <polygon id="path-3" points="0.179208298 0.0511950573 1.71506002 0.0511950573 1.71506002 3.50681023 0.179208298 3.50681023"></polygon>
    </defs>
    <g id="V2---Desktop" stroke="none" stroke-width="1" fill="none" fill-rule="evenodd">
        <g id="Music" transform="translate(-251.000000, -28.000000)">
            <g id="Group" transform="translate(251.000000, 28.000000)">
                <g id="Group-3" transform="translate(0.000000, 12.175624)">
                    <mask id="mask-2" fill="white">
                        <use xlink:href="#path-1"></use>
                    </mask>
                    <g id="Clip-2"></g>
                    <path d="M0.255949689,0.230377758 L4.04438393,0.230377758 C4.1979691,0.230377758 4.30035922,0.358365401 4.30035922,0.486353044 L4.30035922,4.018812 C4.30035922,4.35157987 4.7355172,4.50516504 4.94029743,4.22359223 L7.90961076,0.332767873 C7.96080581,0.255975287 8.0375984,0.230377758 8.11439099,0.230377758 L12.5939585,0.230377758 C12.7475437,0.230377758 12.8499338,0.409560458 12.7475437,0.537548102 L8.5751465,5.70824889 C8.52395144,5.78504148 8.52395144,5.86183406 8.54954897,5.93862665 L12.8755313,12.8243619 C12.9523239,12.9523495 12.8755313,13.1315322 12.7219461,13.1315322 L8.08879346,13.1315322 C7.98640334,13.1315322 7.90961076,13.0803371 7.8584157,13.0035446 L5.68262576,9.44548807 C5.55463812,9.24070784 5.27306531,9.21511032 5.11948013,9.39429302 L4.45394439,10.2134139 C4.3771518,10.315804 4.32595675,10.4181942 4.32595675,10.5461818 L4.32595675,12.8499594 C4.32595675,13.0035446 4.1979691,13.1059347 4.06998146,13.1059347 L0.255949689,13.1059347 C0.102364517,13.1059347 -2.55975287e-05,12.977947 -2.55975287e-05,12.8499594 L-2.55975287e-05,0.486353044 C-2.55975287e-05,0.332767873 0.102364517,0.230377758 0.255949689,0.230377758" id="Fill-1" fill="#FFFFFF" mask="url(#mask-2)"></path>
                </g>
                <path d="M34.0446875,12.4060022 L37.8331218,12.4060022 C37.9867069,12.4060022 38.089097,12.5339899 38.089097,12.6619775 L38.089097,16.1944365 C38.089097,16.5272044 38.524255,16.6807895 38.7290353,16.3992167 L41.6983486,12.5083924 C41.7495436,12.4315998 41.8263362,12.4060022 41.9031288,12.4060022 L46.3826963,12.4060022 C46.5362815,12.4060022 46.6386716,12.5851849 46.5362815,12.7131726 L42.3894819,17.8838734 C42.3382868,17.960666 42.3382868,18.0374586 42.3638843,18.1142511 L46.6898667,24.9999863 C46.7666593,25.127974 46.6898667,25.3071567 46.5362815,25.3071567 L41.9031288,25.3071567 C41.8007387,25.3071567 41.7239461,25.2559616 41.6727511,25.179169 L39.4713636,21.6211126 C39.3433759,21.4163323 39.0618031,21.3907348 38.908218,21.5699175 L38.2426822,22.3890384 C38.1658896,22.4914285 38.1146946,22.5938187 38.1146946,22.7218063 L38.1146946,25.0255839 C38.1146946,25.179169 37.9867069,25.2815592 37.8587193,25.2815592 L34.070285,25.2815592 C33.9166999,25.2815592 33.8143098,25.1535715 33.8143098,25.0255839 L33.8143098,12.6619775 C33.7887122,12.5083924 33.8911023,12.4060022 34.0446875,12.4060022" id="Fill-4" fill="#FFFFFF"></path>
                <path d="M14.436955,12.4060022 L18.1997917,12.4060022 C18.3533769,12.4060022 18.4813645,12.5339899 18.4813645,12.6875751 L18.4813645,25.0255839 C18.4813645,25.179169 18.3533769,25.3071567 18.1997917,25.3071567 L14.436955,25.3071567 C14.2833698,25.3071567 14.1553822,25.179169 14.1553822,25.0255839 L14.1553822,12.6875751 C14.1553822,12.5339899 14.2833698,12.4060022 14.436955,12.4060022" id="Fill-6" fill="#FFFFFF"></path>
                <path d="M55.7514686,20.315741 L54.80436,17.8069272 C54.753165,17.6789396 54.5739823,17.6789396 54.5227872,17.8069272 L53.5756787,20.315741 C53.5244836,20.4178751 53.6268737,20.5458628 53.7292638,20.5458628 L55.5978834,20.5458628 C55.7002735,20.5458628 55.7770661,20.4437286 55.7514686,20.315741 M52.8845454,12.3546536 L56.4681994,12.3546536 C56.6729796,12.3546536 56.8777599,12.4826412 56.9545525,12.6620799 L62.1252532,25.0254303 C62.2020458,25.1792714 62.0740582,25.3581982 61.920473,25.3581982 L57.7480758,25.3581982 C57.6456857,25.3581982 57.5688931,25.3072591 57.5432956,25.204869 L57.0569426,23.9503341 C56.98015,23.7455539 56.7753698,23.6175662 56.5705895,23.6175662 L52.7565578,23.6175662 C52.5517775,23.6175662 52.3469973,23.7455539 52.2702047,23.9503341 L51.7838517,25.204869 C51.7582541,25.3072591 51.655864,25.3581982 51.5534739,25.3581982 L47.4578693,25.3581982 C47.2786866,25.3581982 47.1762965,25.1792714 47.2530891,25.0254303 L52.4237899,12.6620799 C52.5005825,12.4826412 52.6797652,12.3546536 52.8845454,12.3546536" id="Fill-8" fill="#FFFFFF"></path>
                <path d="M19.7100715,18.8821258 C19.7100715,15.3752644 22.3466169,12.4571461 25.8022833,12.1499758 C28.9763768,11.8940005 31.1009717,13.2506695 32.3040556,15.2984718 C32.3552506,15.4008619 32.3296531,15.503252 32.227263,15.5544471 L29.0019744,17.4486642 C28.8995843,17.5001152 28.7971941,17.4742617 28.7459991,17.3721276 C28.259646,16.5527507 27.5941103,15.9896051 26.4934166,15.9896051 C25.0343574,15.9896051 24.0872489,17.2694815 24.0872489,18.8053332 L24.0872489,18.8309307 C24.0872489,20.5203676 25.0855525,21.697854 26.4934166,21.697854 C27.6453054,21.697854 28.3108411,21.1091108 28.8227917,20.2387948 C28.8739867,20.1364047 29.0019744,20.1108072 29.078767,20.1620022 L32.3040556,21.9796827 C32.4064457,22.0306218 32.4320432,22.1586095 32.3808482,22.2609996 C31.2801544,24.1040216 29.4883274,25.5633368 26.3910264,25.5633368 C22.83297,25.5886783 19.7100715,22.8755962 19.7100715,18.8821258" id="Fill-10" fill="#FFFFFF"></path>
                <path d="M68.4989867,16.9623112 C68.2686089,16.9111161 68.0894262,16.8855186 67.9102435,16.8343235 C67.5774757,16.7321894 67.1423177,16.5015556 67.1935127,16.0919952 C67.2447078,15.7080322 67.6286707,15.5800446 67.9358411,15.5800446 C68.9853397,15.6312397 70.1884236,15.93841 71.2635198,16.6295433 C71.4427025,16.7575309 71.6986778,16.7063359 71.8266654,16.5271532 L73.4393097,14.3001682 C73.5672974,14.0953879 73.5416998,13.8394127 73.3369196,13.6858275 C71.9290555,12.6619263 70.162826,12.1499758 67.884646,12.1499758 C64.3265895,12.1499758 62.4067749,14.0441929 62.4067749,16.5015556 L62.4067749,16.5271532 C62.4067749,19.2660887 64.9409302,20.0852096 67.8334509,20.6739528 C68.0126336,20.6998063 68.1662188,20.7507454 68.2942065,20.7763429 C68.6013768,20.8531355 69.2669125,21.1091108 69.19012,21.6210614 C69.1133274,22.0562194 68.4733892,22.1076704 68.1406213,22.1076704 L68.0382312,22.1076704 L67.9614386,22.1076704 C66.7327572,22.0050243 65.4528808,21.6210614 64.300992,20.827794 C64.1218093,20.6998063 63.8914315,20.7507454 63.7378464,20.9043306 L61.9716169,23.0035839 C61.8180317,23.1825106 61.8436292,23.4640834 62.0484095,23.6176686 C63.6610538,24.8719475 65.8880388,25.5118857 68.319804,25.5118857 C71.7754704,25.5118857 74.0024553,23.8480464 74.0024553,21.1347083 L74.0024553,21.1091108 C74.0024553,18.5240164 71.8010679,17.5766518 68.4989867,16.9623112" id="Fill-12" fill="#FFFFFF"></path>
                <path d="M80.7858004,16.9623112 C80.5554227,16.9111161 80.37624,16.8855186 80.1970573,16.8343235 C79.8642894,16.7321894 79.4291314,16.5015556 79.4803265,16.0919952 C79.5315215,15.7080322 79.9154845,15.5800446 80.2226548,15.5800446 C81.2721535,15.6312397 82.4752373,15.93841 83.5503335,16.6295433 C83.7295162,16.7575309 83.9854915,16.7063359 84.1134792,16.5271532 L85.7261235,14.3001682 C85.8541111,14.0953879 85.8285136,13.8394127 85.6237334,13.6858275 C84.2158693,12.6619263 82.4496398,12.1499758 80.1714597,12.1499758 C76.6134033,12.1499758 74.6935886,14.0441929 74.6935886,16.5015556 L74.6935886,16.5271532 C74.6935886,19.2660887 77.227744,20.0852096 80.1202647,20.6739528 C80.2994474,20.6998063 80.4530326,20.7507454 80.5810202,20.7763429 C80.8881906,20.8531355 81.5537263,21.1091108 81.4769337,21.6210614 C81.4001411,22.0562194 80.7602029,22.1076704 80.427435,22.1076704 L80.3250449,22.1076704 L80.2482523,22.1076704 C79.019571,22.0050243 77.7396945,21.6210614 76.5878057,20.827794 C76.408623,20.6998063 76.1782453,20.7507454 76.0246601,20.9043306 L74.2584306,23.0035839 C74.1048455,23.1825106 74.130443,23.4640834 74.3352232,23.6176686 C75.9478675,24.8719475 78.1748525,25.5118857 80.6066177,25.5118857 C84.0622841,25.5118857 86.2892691,23.8480464 86.2892691,21.1347083 L86.2892691,21.1091108 C86.2892691,18.5240164 84.0878816,17.5766518 80.7858004,16.9623112" id="Fill-14" fill="#FFFFFF"></path>
                <path d="M136.383684,20.315741 L135.436575,17.8069272 C135.38538,17.6789396 135.205942,17.6789396 135.155002,17.8069272 L134.207894,20.315741 C134.156699,20.4178751 134.259089,20.5458628 134.361479,20.5458628 L136.229843,20.5458628 C136.332489,20.5458628 136.434879,20.4437286 136.383684,20.315741 M133.542102,12.3546536 L137.125756,12.3546536 C137.330792,12.3546536 137.535573,12.4826412 137.612365,12.6620799 L142.783066,25.0254303 C142.859859,25.1792714 142.731871,25.3581982 142.578286,25.3581982 L138.405633,25.3581982 C138.303499,25.3581982 138.226706,25.3072591 138.201108,25.204869 L137.714755,23.9503341 C137.637707,23.7455539 137.433183,23.6175662 137.228402,23.6175662 L133.388773,23.6175662 C133.183993,23.6175662 132.979213,23.7455539 132.902164,23.9503341 L132.416067,25.204869 C132.390213,25.3072591 132.288079,25.3581982 132.185689,25.3581982 L128.090085,25.3581982 C127.910646,25.3581982 127.808512,25.1792714 127.885304,25.0254303 L133.056005,12.6620799 C133.132798,12.4826412 133.31198,12.3546536 133.542102,12.3546536" id="Fill-16" fill="#FFFFFF"></path>
                <path d="M123.533673,18.728643 C124.634367,18.728643 125.376695,18.24229 125.376695,17.3207789 L125.376695,17.2695839 C125.376695,16.3224753 124.685562,15.8617198 123.559271,15.8617198 L122.586565,15.8617198 C122.484175,15.8617198 122.381785,15.9385124 122.381785,16.0665 L122.381785,18.5494603 C122.381785,18.6518504 122.458577,18.7542405 122.586565,18.7542405 L123.533673,18.7542405 L123.533673,18.728643 Z M118.055802,12.7132238 C118.055802,12.5340411 118.18379,12.4060534 118.362973,12.4060534 L123.866441,12.4060534 C127.29651,12.4060534 129.625885,13.9419052 129.625885,16.9880111 L129.625885,17.0136086 C129.625885,20.1365071 127.245315,21.774493 123.764051,21.774493 L122.560967,21.774493 C122.458577,21.774493 122.356187,21.8515415 122.356187,21.9795292 L122.356187,24.974184 C122.356187,25.1536227 122.228199,25.2816104 122.049017,25.2816104 L118.337375,25.2816104 C118.158192,25.2816104 118.030205,25.1536227 118.030205,24.974184 L118.030205,12.7132238 L118.055802,12.7132238 Z" id="Fill-18" fill="#FFFFFF"></path>
                <path d="M149.796635,18.523914 C150.820536,18.523914 151.460475,18.0629025 151.460475,17.2696351 L151.460475,17.2440376 C151.460475,16.4249166 150.820536,16.0153562 149.822489,16.0153562 L148.260784,16.0153562 C148.081857,16.0153562 147.953869,16.1433438 147.953869,16.3222705 L147.953869,18.2167436 C147.953869,18.3959263 148.081857,18.523914 148.260784,18.523914 L149.796635,18.523914 Z M143.627631,12.7386165 C143.627631,12.5340923 143.781216,12.3805071 143.986252,12.3805071 L149.924623,12.3805071 C152.202803,12.3805071 153.662118,12.9436527 154.558032,13.8651638 C155.325957,14.6330896 155.735262,15.6057957 155.735262,16.9368672 L155.735262,16.9622088 C155.735262,18.7286942 154.865202,20.0085706 153.457338,20.7764965 C153.32935,20.8532891 153.278155,21.0324718 153.380289,21.1604594 L155.86325,24.769455 C156.017091,25.0000887 155.86325,25.2814056 155.581933,25.2814056 L151.665511,25.2814056 C151.434877,25.2814056 151.204499,25.1534179 151.076512,24.9488937 L148.951917,21.7236051 C148.900722,21.6465565 148.798588,21.5956174 148.695942,21.5956174 L148.286637,21.5956174 C148.081857,21.5956174 147.928016,21.7492026 147.928016,21.9537269 L147.928016,24.9488937 C147.928016,25.1534179 147.774687,25.3072591 147.569906,25.3072591 L143.960399,25.3072591 C143.755619,25.3072591 143.602289,25.1534179 143.602289,24.9488937 L143.627631,12.7386165 Z" id="Fill-20" fill="#FFFFFF"></path>
                <path d="M202.194828,18.523914 C203.218729,18.523914 203.858667,18.0629025 203.858667,17.2696351 L203.858667,17.2440376 C203.858667,16.4249166 203.218729,16.0153562 202.220681,16.0153562 L200.658976,16.0153562 C200.479793,16.0153562 200.351806,16.1433438 200.351806,16.3222705 L200.351806,18.2167436 C200.351806,18.3959263 200.479793,18.523914 200.658976,18.523914 L202.194828,18.523914 Z M196.025823,12.7386165 C196.025823,12.5340923 196.179408,12.3805071 196.384189,12.3805071 L202.322815,12.3805071 C204.600995,12.3805071 206.06031,12.9436527 206.956224,13.8651638 C207.72415,14.6330896 208.133454,15.6057957 208.133454,16.9368672 L208.133454,16.9622088 C208.133454,18.7286942 207.263138,20.0085706 205.855274,20.7764965 C205.727287,20.8532891 205.676348,21.0324718 205.778482,21.1604594 L208.261442,24.769455 C208.415027,25.0000887 208.261442,25.2814056 207.980125,25.2814056 L204.063447,25.2814056 C203.833069,25.2814056 203.602692,25.1534179 203.474704,24.9488937 L201.350109,21.7236051 C201.298914,21.6465565 201.19678,21.5956174 201.094134,21.5956174 L200.684829,21.5956174 C200.479793,21.5956174 200.326208,21.7492026 200.326208,21.9537269 L200.326208,24.9488937 C200.326208,25.1534179 200.172879,25.3072591 199.967843,25.3072591 L196.358591,25.3072591 C196.153811,25.3072591 196.000226,25.1534179 196.000226,24.9488937 L196.025823,12.7386165 Z" id="Fill-22" fill="#FFFFFF"></path>
                <path d="M159.984656,16.0409025 L156.759112,16.0409025 C156.605783,16.0409025 156.477795,15.9129149 156.477795,15.7593297 L156.477795,12.6876263 C156.477795,12.5340411 156.605783,12.4060534 156.759112,12.4060534 L168.073476,12.4060534 C168.226805,12.4060534 168.354792,12.5340411 168.354792,12.6876263 L168.354792,15.7593297 C168.354792,15.9129149 168.226805,16.0409025 168.073476,16.0409025 L164.848187,16.0409025 C164.694346,16.0409025 164.566358,16.1688902 164.566358,16.3224753 L164.566358,25.0000375 C164.566358,25.1536227 164.43837,25.3072079 164.259188,25.3072079 L160.547546,25.3072079 C160.394217,25.3072079 160.240632,25.1792202 160.240632,25.0000375 L160.240632,16.3224753 C160.266229,16.1688902 160.138242,16.0409025 159.984656,16.0409025" id="Fill-24" fill="#FFFFFF"></path>
                <path d="M169.788459,12.4060022 L172.98815,12.4060022 C173.320918,12.4060022 173.653686,12.5595874 173.85821,12.8155627 L177.6469,17.525508 C177.800485,17.7302882 178.107656,17.6023006 178.107656,17.3719228 L178.107656,12.6875751 C178.107656,12.5339899 178.235643,12.4060022 178.389228,12.4060022 L182.075273,12.4060022 C182.228858,12.4060022 182.356845,12.5339899 182.356845,12.6875751 L182.356845,24.9999863 C182.356845,25.1535715 182.228858,25.2815592 182.075273,25.2815592 L179.080362,25.2815592 C178.747594,25.2815592 178.414826,25.127974 178.20979,24.8719987 L174.216831,19.9060781 C174.063246,19.7012979 173.756076,19.8292856 173.756076,20.0596633 L173.756076,24.9743888 C173.756076,25.127974 173.628088,25.2559616 173.474247,25.2559616 L169.788459,25.2559616 C169.634618,25.2559616 169.50663,25.127974 169.50663,24.9743888 L169.50663,12.6875751 C169.481288,12.5339899 169.609276,12.4060022 169.788459,12.4060022" id="Fill-26" fill="#FFFFFF"></path>
                <path d="M183.943841,12.4060022 L194.362035,12.4060022 C194.51562,12.4060022 194.669205,12.5339899 194.669205,12.7131726 L194.669205,15.6568884 C194.669205,15.8104736 194.541218,15.9640587 194.362035,15.9640587 L188.167433,15.9640587 C188.013848,15.9640587 187.860263,16.0920464 187.860263,16.2712291 L187.860263,16.9879599 C187.860263,17.141545 187.98825,17.2951302 188.167433,17.2951302 L193.875682,17.2951302 C194.029267,17.2951302 194.182852,17.4231179 194.182852,17.6023006 L194.182852,20.1108584 C194.182852,20.2644435 194.054865,20.4180287 193.875682,20.4180287 L188.167433,20.4180287 C188.013848,20.4180287 187.860263,20.5460164 187.860263,20.7251991 L187.860263,21.5187224 C187.860263,21.6723076 187.98825,21.8258928 188.167433,21.8258928 L194.438828,21.8258928 C194.592413,21.8258928 194.745998,21.9538804 194.745998,22.1330631 L194.745998,25.0767789 C194.745998,25.2303641 194.61801,25.3839493 194.438828,25.3839493 L183.943841,25.3839493 C183.790256,25.3839493 183.636671,25.2559616 183.636671,25.0767789 L183.636671,12.6875751 C183.636671,12.5339899 183.764658,12.4060022 183.943841,12.4060022" id="Fill-28" fill="#FFFFFF"></path>
                <path d="M215.172826,16.9623112 C214.942448,16.9111161 214.763265,16.8855186 214.584083,16.8343235 C214.251315,16.7321894 213.816157,16.5015556 213.867352,16.0919952 C213.918547,15.7080322 214.30251,15.5800446 214.60968,15.5800446 C215.659179,15.6312397 216.862263,15.93841 217.937359,16.6295433 C218.116542,16.7575309 218.372517,16.7063359 218.500505,16.5271532 L220.113149,14.3001682 C220.241137,14.0953879 220.215539,13.8394127 220.010759,13.6858275 C218.577297,12.6619263 216.836665,12.1499758 214.532888,12.1499758 C210.974831,12.1499758 209.055017,14.0441929 209.055017,16.5015556 L209.055017,16.5271532 C209.055017,19.2660887 211.589172,20.0852096 214.481693,20.6739528 C214.660875,20.6998063 214.81446,20.7507454 214.942448,20.7763429 C215.249618,20.8531355 215.915154,21.1091108 215.838362,21.6210614 C215.761569,22.0562194 215.121631,22.1076704 214.788863,22.1076704 L214.686473,22.1076704 L214.60968,22.1076704 C213.380999,22.0050243 212.101122,21.6210614 210.949234,20.827794 C210.770051,20.6998063 210.539673,20.7507454 210.386088,20.9043306 L208.619859,23.0035839 C208.466273,23.1825106 208.491871,23.4640834 208.696651,23.6176686 C210.309295,24.8719475 212.53628,25.5118857 214.968046,25.5118857 C218.423712,25.5118857 220.650697,23.8480464 220.650697,21.1347083 L220.650697,21.1091108 C220.676295,18.5240164 218.474907,17.5766518 215.172826,16.9623112" id="Fill-30" fill="#FFFFFF"></path>
                <g id="Group-34" transform="translate(100.854263, 0.144786)">
                    <mask id="mask-4" fill="white">
                        <use xlink:href="#path-3"></use>
                    </mask>
                    <g id="Clip-33"></g>
                    <path d="M0.947134158,3.50681023 C0.511976171,3.50681023 0.179208298,3.17404236 0.179208298,2.73888437 L0.179208298,0.819069722 C0.179208298,0.383911735 0.511976171,0.0511438623 0.947134158,0.0511438623 C1.38229214,0.0511438623 1.71506002,0.383911735 1.71506002,0.819069722 L1.71506002,2.7644819 C1.71506002,3.17404236 1.35669462,3.50681023 0.947134158,3.50681023" id="Fill-32" fill="#FFFFFF" mask="url(#mask-4)"></path>
                </g>
                <path d="M104.796231,4.39402697 C104.642646,4.39402697 104.489061,4.34283192 104.361073,4.2404418 C104.028305,3.98446651 103.925915,3.523711 104.18189,3.1653456 L105.333779,1.55270129 C105.589755,1.21993342 106.05051,1.11754331 106.408875,1.37351859 C106.741643,1.62949388 106.844033,2.09024939 106.588058,2.4486148 L105.436169,4.0612591 C105.282584,4.29163686 105.026609,4.39402697 104.796231,4.39402697" id="Fill-35" fill="#FFFFFF"></path>
                <path d="M98.806435,4.39402697 C98.5760573,4.39402697 98.320082,4.29163686 98.1920943,4.0612591 L97.0402055,2.47421232 C96.7842302,2.14144445 96.8610228,1.65509141 97.2193882,1.39911612 C97.5521561,1.14314083 98.0385092,1.21993342 98.2944844,1.57829882 L99.4463732,3.19094313 C99.7023485,3.523711 99.6255559,4.01006404 99.2671905,4.26603933 C99.1136054,4.36842944 98.9600202,4.39402697 98.806435,4.39402697" id="Fill-37" fill="#FFFFFF"></path>
                <path d="M109.173434,21.6211126 L109.480604,21.6211126 C109.915762,21.6211126 110.24853,21.2883447 110.24853,20.8531867 L110.24853,17.9094709 C110.24853,17.4743129 109.915762,17.141545 109.480604,17.141545 L109.173434,17.141545 L109.173434,16.6295945 C109.173434,16.1944365 108.840666,15.8616686 108.405508,15.8616686 C107.97035,15.8616686 107.637582,16.1944365 107.637582,16.6295945 L107.637582,17.141545 L107.330412,17.141545 C106.895254,17.141545 106.562486,17.4743129 106.562486,17.9094709 L106.562486,20.8531867 C106.562486,21.2883447 106.895254,21.6211126 107.330412,21.6211126 L107.637582,21.6211126 L107.637582,25.7935097 C106.050536,27.1245812 104.028331,27.9181046 101.801346,27.9181046 C96.7842302,27.9181046 92.7142232,23.8480976 92.7142232,18.8309819 C92.7142232,13.8138663 96.7842302,9.74385927 101.801346,9.74385927 C106.818461,9.74385927 110.888469,13.8138663 110.888469,18.8309819 C110.888469,20.8275892 110.24853,22.6450137 109.147837,24.1552679 L109.173434,21.6211126 Z M108.098338,20.0852608 L108.712679,20.0852608 L108.712679,18.6773968 L108.098338,18.6773968 L108.098338,20.0852608 Z M112.42432,18.8053844 C112.42432,12.9435503 107.66318,8.18241002 101.801346,8.18241002 C95.9395118,8.18241002 91.1783715,12.9435503 91.1783715,18.8053844 C91.1783715,24.6672185 95.9395118,29.4283588 101.801346,29.4283588 C103.951538,29.4283588 105.948146,28.7884206 107.637582,27.6877269 L107.637582,28.8140181 L103.3116,31.1945883 C102.927637,31.3993685 102.799649,31.860124 103.00443,32.244087 C103.132417,32.5000622 103.41399,32.6536474 103.669965,32.6536474 C103.797953,32.6536474 103.925941,32.6280499 104.028331,32.5512573 L108.738276,29.9659069 C108.994251,29.8379193 109.147837,29.581944 109.147837,29.3003712 L109.147837,26.484643 C111.170041,24.5392308 112.42432,21.8258928 112.42432,18.8053844 Z" id="Fill-39" fill="#FFFFFF"></path>
                <path d="M101.571045,18.7028919 C101.571045,18.5749043 101.673435,18.4727701 101.801423,18.4727701 C101.92941,18.4727701 102.0318,18.5749043 102.0318,18.7028919 C102.0318,18.8308795 101.92941,18.9332697 101.801423,18.9332697 C101.673435,18.9332697 101.571045,18.8308795 101.571045,18.7028919 M103.567652,18.7028919 C103.567652,17.7301858 102.774129,16.9369184 101.801423,16.9369184 C100.828717,16.9369184 100.035193,17.7301858 100.035193,18.7028919 C100.035193,19.675854 100.828717,20.4691214 101.801423,20.4691214 C102.774129,20.4691214 103.567652,19.675854 103.567652,18.7028919" id="Fill-41" fill="#FFFFFF"></path>
                <path d="M99.395255,18.7028919 C99.395255,17.3720764 100.470351,16.2969802 101.801423,16.2969802 C103.132494,16.2969802 104.20759,17.3720764 104.20759,18.7028919 C104.20759,20.0339634 103.132494,21.1090596 101.801423,21.1090596 C100.470351,21.1090596 99.395255,20.0086218 99.395255,18.7028919 M105.743442,18.7028919 C105.743442,16.527102 103.977213,14.7611285 101.801423,14.7611285 C99.6256327,14.7611285 97.8594032,16.527102 97.8594032,18.7028919 C97.8594032,20.8786818 99.6256327,22.6449113 101.801423,22.6449113 C103.977213,22.6195698 105.743442,20.8530843 105.743442,18.7028919" id="Fill-43" fill="#FFFFFF"></path>
                <path d="M102.159737,11.9964162 C102.594895,11.9964162 102.927663,11.6892458 102.95326,11.2540879 C102.978858,10.8189299 102.64609,10.486162 102.210932,10.4605645 C99.8303618,10.3837719 97.5009866,11.3052829 95.8371473,12.9691223 C95.5299769,13.2762926 95.5299769,13.7626457 95.8371473,14.0442185 C95.9907325,14.1978037 96.1955127,14.2745962 96.3746954,14.2745962 C96.5794756,14.2745962 96.7586583,14.1978037 96.9122435,14.0442185 C98.3201076,12.6875495 100.188727,11.9452211 102.159737,11.9964162" id="Fill-45" fill="#FFFFFF"></path>
                <path d="M105.743391,24.2321117 C104.540307,25.0768301 103.132443,25.5119881 101.673384,25.5119881 C101.238226,25.5119881 100.905458,25.844756 100.905458,26.279914 C100.905458,26.715072 101.238226,27.0478398 101.673384,27.0478398 C103.465211,27.0478398 105.180245,26.5100358 106.613707,25.4861346 C106.972072,25.2301593 107.048865,24.7696598 106.79289,24.4112944 C106.562512,24.0782705 106.076159,23.9761364 105.743391,24.2321117" id="Fill-47" fill="#FFFFFF"></path>
            </g>
        </g>
    </g>
</svg>