<?xml version="1.0" encoding="UTF-8"?>
<svg width="222px" height="22px" viewBox="0 0 222 22" version="1.1" xmlns="http://www.w3.org/2000/svg" xmlns:xlink="http://www.w3.org/1999/xlink">
    <!-- Generator: Sketch 51.1 (57501) - http://www.bohemiancoding.com/sketch -->
    <title>Group 25</title>
    <desc>Created with Sketch.</desc>
    <defs></defs>
    <g id="V2---Desktop" stroke="none" stroke-width="1" fill="none" fill-rule="evenodd">
        <g id="Music" transform="translate(-250.000000, -1192.000000)" fill="#FFFFFF">
            <g id="Group-25" transform="translate(250.500000, 1192.785156)">
                <polygon id="Fill-1" points="74.5019529 5.22045593 82.2063712 5.22045593 83.2508831 0.394487656 70.2676785 0.394487656 66.0345312 20.405388 71.2846407 20.405388 72.7795913 13.3776923 79.6383569 13.3776923 80.5977151 8.91813592 73.7113997 8.91813592"></polygon>
                <polygon id="Fill-2" points="87.512031 12.5307873 94.4271484 12.5307873 95.3302799 8.12758276 88.4439646 8.12758276 89.1206871 4.96662238 96.7136541 4.96662238 97.7008124 0.394487656 84.858863 0.394487656 80.6257156 20.405388 93.5238916 20.405388 94.5397268 15.7480995 86.8353085 15.7480995"></polygon>
                <polygon id="Fill-3" points="164.656332 0.394487656 162.313475 11.4023738 158.164104 0.394487656 152.406202 0.394487656 148.173055 20.405388 153.365685 20.405388 155.8786 8.46657015 160.507087 20.405388 165.672042 20.405388 169.933992 0.394487656"></polygon>
                <path d="M220.541228,0.394487656 L190.138179,0.394487656 L188.535659,7.97004817 C188.559452,8.26908839 188.617056,8.55235012 188.617056,8.86178412 C188.617056,11.4033756 187.986291,13.6779848 186.921117,15.6023362 L185.905031,20.405388 L198.803207,20.405388 L199.818917,15.7480995 L192.114499,15.7480995 L192.791347,12.5307873 L199.706464,12.5307873 L200.609596,8.12758276 L193.72328,8.12758276 L194.31535,5.36183634 L212.271413,5.36183634 L201.405909,15.4942659 L200.361523,20.405388 L216.420659,20.405388 L217.492721,15.4379141 L208.461155,15.4379141 L219.525518,5.19290616 L220.541228,0.394487656 Z" id="Fill-4"></path>
                <path d="M176.673642,15.2402696 L173.906643,15.2402696 L175.96699,5.50317918 L177.943436,5.50317918 C180.51145,5.50317918 181.781244,7.02680667 181.781244,9.34211435 C181.781244,12.3054678 179.806051,15.2402696 176.673642,15.2402696 M178.422552,0.394450088 L171.790195,0.394450088 L167.613274,20.4053505 L176.419808,20.4053505 C182.317838,20.4053505 187.172609,15.8895676 187.172609,8.86174655 C187.172609,3.97942647 183.841466,0.394450088 178.422552,0.394450088" id="Fill-7"></path>
                <polygon id="Fill-9" points="143.563778 0.366236619 131.16801 16.8329844 130.417654 20.377137 134.609602 20.377137 143.973268 8.45747873 141.136017 20.377137 146.300472 20.377137 150.581205 0.366236619"></polygon>
                <polygon id="Fill-11" points="128.047109 0.394487656 125.705379 11.4023738 121.556133 0.394487656 115.798231 0.394487656 111.986094 18.4150424 112.652673 20.405388 116.758716 20.405388 119.270629 8.46657015 123.89899 20.405388 129.064071 20.405388 133.325895 0.394487656"></polygon>
                <path d="M26.3208495,12.1076604 L28.6350302,12.1076604 C29.9610507,12.1076604 30.5539969,12.813185 30.5539969,13.8012199 C30.5539969,15.2123942 29.4255833,16.2006796 27.844477,16.2006796 L25.417718,16.2006796 L26.3208495,12.1076604 Z M27.8731538,4.59972206 L29.7921205,4.59972206 C31.0905912,4.59972206 31.6547354,5.22134504 31.6547354,6.15202635 C31.6547354,7.47917389 30.6390255,8.38243065 29.1716245,8.38243065 L27.0826007,8.38243065 L27.8731538,4.59972206 Z M28.7189317,20.4337017 C32.7267971,20.4337017 35.6339239,17.865437 35.6339239,14.2241088 C35.6339239,12.192689 34.3354532,10.7816399 33.0657845,10.3012721 C35.3237386,9.70845115 36.8198163,7.62055429 36.8198163,5.22134504 C36.8198163,2.22906438 34.7594692,0.422801305 31.146943,0.422801305 L23.6952313,0.422801305 L19.4620839,20.4337017 L28.7189317,20.4337017 Z" id="Fill-13"></path>
                <polygon id="Fill-15" points="41.2081565 20.4337393 45.4699806 0.422838873 40.1072927 0.422838873 35.8741454 20.4337393"></polygon>
                <polygon id="Fill-17" points="55.8674515 20.4337393 56.8831614 15.7765759 49.1787431 15.7765759 49.8555908 12.5591385 56.770583 12.5591385 57.6737146 8.15593398 50.7875244 8.15593398 51.4642469 4.99497359 59.0572139 4.99497359 60.044247 0.422838873 47.2024228 0.422838873 42.9692755 20.4337393"></polygon>
                <path d="M10.6977258,5.05121269 C13.2935402,5.05121269 14.6769144,6.9989814 14.6769144,9.48321926 C14.6769144,13.5474364 11.9675197,15.7202367 9.45560688,15.7202367 C6.97136902,15.7202367 5.4752913,13.828945 5.4752913,11.2608055 C5.4752913,7.28161699 8.15713615,5.05121269 10.6977258,5.05121269 M9.11661949,20.8565155 C14.6206878,20.8565155 20.1521806,16.7360718 20.1521806,9.08788007 C20.1521806,3.61261381 16.5108524,-3.75678677e-05 11.0080364,-3.75678677e-05 C5.08107915,-3.75678677e-05 2.50452451e-05,4.59977215 2.50452451e-05,11.7687231 C2.50452451e-05,17.1599626 3.61267642,20.8565155 9.11661949,20.8565155" id="Fill-19"></path>
                <path d="M105.205182,9.0870661 L102.891001,9.0870661 L103.821682,4.76889016 L106.023285,4.76889016 C107.350432,4.76889016 107.970928,5.50321675 107.970928,6.5477287 C107.970928,7.95865258 106.955218,9.0870661 105.205182,9.0870661 M113.277264,5.92598049 C113.277264,2.73734511 111.104464,0.394487656 107.321755,0.394487656 L99.5035065,0.394487656 L95.2703592,20.405388 L100.491667,20.405388 L102.072773,13.0673817 L103.681554,13.0673817 L105.883157,20.405388 L111.307581,20.405388 L108.620226,12.4182089 C111.329621,11.4862754 113.277264,9.20077151 113.277264,5.92598049" id="Fill-22"></path>
            </g>
        </g>
    </g>
</svg>