<?xml version="1.0" encoding="UTF-8"?>
<svg width="73px" height="32px" viewBox="0 0 73 32" version="1.1" xmlns="http://www.w3.org/2000/svg" xmlns:xlink="http://www.w3.org/1999/xlink">
    <!-- Generator: Sketch 51.1 (57501) - http://www.bohemiancoding.com/sketch -->
    <title>Group 3</title>
    <desc>Created with Sketch.</desc>
    <defs>
        <polygon id="path-1" points="0 1.436812e-05 72.7424612 1.436812e-05 72.7424612 31.1682599 0 31.1682599"></polygon>
    </defs>
    <g id="V2---Desktop" stroke="none" stroke-width="1" fill="none" fill-rule="evenodd">
        <g id="Music" transform="translate(-251.000000, -1241.000000)">
            <g id="Group-3" transform="translate(251.000000, 1241.178195)">
                <mask id="mask-2" fill="white">
                    <use xlink:href="#path-1"></use>
                </mask>
                <g id="Clip-2"></g>
                <path d="M0.531741051,18.9229721 L-2.91261223e-05,22.9081858 L0.531741051,26.8264439 C0.551473999,26.9919647 0.672420222,27.1076281 0.824167319,27.1076281 C0.970962975,27.1076281 1.09059852,26.9919647 1.11404505,26.8275934 L1.74447997,22.9081858 L1.11404505,18.9217509 C1.09183638,18.7574514 0.970962975,18.6430093 0.824167319,18.6430093 C0.672420222,18.6430093 0.551473999,18.7586727 0.531741051,18.9229721 M3.21017925,16.4641558 C3.21017925,16.4654489 2.49462325,22.9081858 2.49462325,22.9081858 L3.21017925,29.2121984 C3.23115006,29.3801618 3.35945063,29.5018597 3.51367345,29.5018597 C3.66542055,29.5018597 3.79008035,29.3837538 3.81469192,29.2133479 L4.62774763,22.9081858 L3.8160026,16.4641558 C3.79008035,16.2925286 3.66542055,16.1744945 3.51367345,16.1744945 C3.35945063,16.1744945 3.23115006,16.2961924 3.21017925,16.4641558 M11.6674586,15.623046 L11.0629459,22.9117778 L11.6674586,30.5754457 C11.6847158,30.84571 11.8932588,31.0513896 12.1560493,31.0513896 C12.4151261,31.0513896 12.6248342,30.8469313 12.6445671,30.5767388 L13.331798,22.9117778 L12.6445671,15.619454 C12.6248342,15.3516322 12.416364,15.1483233 12.1560493,15.1483233 C11.8932588,15.1483233 11.6847158,15.3516322 11.6674586,15.623046 M6.0058501,15.2615441 C6.0058501,15.2627654 5.32604641,22.9094071 5.32604641,22.9094071 L6.0058501,30.2772353 C6.02558305,30.4829868 6.17856801,30.63026 6.37101886,30.63026 C6.55982895,30.63026 6.71274109,30.4829868 6.73494976,30.2784566 L7.50606384,22.9094071 L6.73618762,15.2615441 C6.71274109,15.0583071 6.55982895,14.9098125 6.37101886,14.9098125 C6.17856801,14.9098125 6.02558305,15.0595283 6.0058501,15.2615441 M8.82496748,15.0546432 L8.18339182,22.9117778 L8.82496748,30.5121541 C8.8422247,30.7482941 9.02601053,30.9248065 9.2518108,30.9248065 C9.47513534,30.9248065 9.65775613,30.7482941 9.67865412,30.5121541 L10.4065887,22.9117778 L9.67865412,15.0522006 C9.65775613,14.8185031 9.47513534,14.6395482 9.2518108,14.6395482 C9.02601053,14.6395482 8.8422247,14.8185031 8.82496748,15.0546432 M14.533469,11.0560672 L13.9646358,22.9154417 L14.533469,30.5778882 C14.5482505,30.8773199 14.7900701,31.1134599 15.0836614,31.1134599 C15.3748499,31.1134599 15.6179073,30.8773199 15.6351646,30.576667 L15.6351646,30.5791095 L16.2792159,22.9154417 L15.6351646,11.0560672 C15.6179073,10.7554143 15.3748499,10.518053 15.0836614,10.518053 C14.7900701,10.518053 14.5482505,10.7554143 14.533469,11.0560672 M17.4228531,8.34530585 C17.4228531,8.34652714 16.891083,22.9154417 16.891083,22.9154417 L17.4228531,30.5316947 C17.4376346,30.865107 17.7066144,31.1281154 18.0360308,31.1281154 C18.3629715,31.1281154 18.6319513,30.865107 18.6492085,30.5292522 L19.2500076,22.9154417 L18.6492085,8.34530585 C18.6319513,8.00930737 18.3629715,7.74644261 18.0360308,7.74644261 C17.7066144,7.74644261 17.4376346,8.00930737 17.4228531,8.34530585 M29.21369,7.60039067 L28.8287882,22.9203987 L29.21369,30.2931121 C29.222355,30.7629496 29.6023052,31.1329287 30.0761144,31.1329287 C30.548613,31.1329287 30.9249225,30.7629496 30.9359904,30.2882269 L30.9359904,30.2942616 L31.3677851,22.9215481 L30.9359904,7.59909754 C30.9249225,7.12566798 30.548613,6.75317447 30.0761144,6.75317447 C29.6023052,6.75317447 29.222355,7.12566798 29.21369,7.60039067 M20.3357566,7.13170259 L19.8397388,22.9178842 L20.3357566,30.4548971 C20.3480624,30.8225773 20.6441294,31.1122386 21.0106089,31.1122386 C21.3745398,31.1122386 21.6706068,30.8237268 21.6854611,30.4525264 L22.2443186,22.9178842 L21.6854611,7.13055314 C21.6706068,6.76050221 21.3745398,6.47076907 21.0106089,6.47076907 C20.6441294,6.47076907 20.3480624,6.76050221 20.3357566,7.13170259 M26.2305197,7.01848181 L25.8097929,22.9203987 L26.2317576,30.3393056 C26.2403498,30.7750907 26.5920477,31.1207877 27.0311968,31.1207877 C27.4667051,31.1207877 27.8170924,30.7750907 27.829471,30.3356417 L27.829471,30.3405987 L28.3032074,22.9203987 L27.829471,7.01848181 C27.8170924,6.57788341 27.4667051,6.23340773 27.0311968,6.23340773 C26.5920477,6.23340773 26.2403498,6.5791047 26.2305197,7.01848181 M23.270796,6.60101608 L22.813079,22.9178842 L23.2720338,30.4099968 C23.2818639,30.8104363 23.6064017,31.1281154 24.0085606,31.1281154 C24.4083167,31.1281154 24.7315438,30.8104363 24.7450875,30.4074823 L24.7450875,30.4099968 L24.7450875,30.4074823 L24.7450875,30.4062611 L25.2607655,22.9191055 L24.7450875,6.60101608 C24.7327817,6.19447012 24.4083167,5.87794044 24.0085606,5.87794044 C23.6064017,5.87794044 23.2818639,6.19447012 23.270796,6.60101608 M32.2203067,4.68998427 L31.8736331,22.9167348 C31.8736331,22.9276546 32.2203067,30.2455536 32.2203067,30.2455536 C32.2289718,30.7410382 32.6422714,31.1488055 33.1431679,31.1488055 C33.6440644,31.1488055 34.0573641,30.7410382 34.067267,30.2419616 L34.067267,30.2468468 L34.067267,30.2419616 L34.4558823,22.9239907 L34.067267,4.68876298 C34.0586019,4.18968633 33.6440644,3.78314038 33.1431679,3.78314038 C32.6422714,3.78314038 32.2289718,4.18968633 32.2203067,4.68998427 M35.2133799,3.03944648 L34.8086724,22.925212 L35.2133799,30.142175 C35.2195692,30.6691976 35.6624319,31.1037614 36.1990807,31.1037614 C36.7345644,31.1037614 37.1762621,30.6691976 37.1836164,30.1347754 L37.1836164,30.142175 L37.6229112,22.925212 L37.1836164,3.0370039 C37.1762621,2.5050961 36.7345644,2.06808973 36.1990807,2.06808973 C35.6624319,2.06808973 35.2195692,2.5050961 35.2133799,3.03944648 M38.8887324,1.05657408 C38.2138074,1.31340422 38.0336623,1.5787834 38.027473,2.09366498 L38.027473,30.1117146 C38.034973,30.6509501 38.4593406,31.1013189 38.9935865,31.1549119 C39.0169602,31.1560614 63.6362519,31.1682743 63.7954262,31.1682743 C68.7377651,31.1682743 72.7424612,27.2159637 72.7424612,22.3397829 C72.7424612,17.4635304 68.7377651,13.512441 63.7954262,13.512441 C62.5690708,13.512441 61.4007492,13.7570583 60.334806,14.1965072 C59.6228907,6.24195676 52.8619896,1.436812e-05 44.6120155,1.436812e-05 C42.5935752,1.436812e-05 40.6270522,0.391976683 38.8887324,1.05657408" id="Fill-1" fill="#FFFFFF" mask="url(#mask-2)"></path>
            </g>
        </g>
    </g>
</svg>