<?xml version="1.0" encoding="UTF-8"?>
<svg width="101px" height="28px" viewBox="0 0 101 28" version="1.1" xmlns="http://www.w3.org/2000/svg" xmlns:xlink="http://www.w3.org/1999/xlink">
    <!-- Generator: Sketch 51.1 (57501) - http://www.bohemiancoding.com/sketch -->
    <title>Group 21</title>
    <desc>Created with Sketch.</desc>
    <defs>
        <polygon id="path-1" points="0.157972828 0.12823605 5.20646741 0.12823605 5.20646741 5.10920561 0.157972828 5.10920561"></polygon>
        <polygon id="path-3" points="0.060134423 0.258528206 5.07097987 0.258528206 5.07097987 5.20237965 0.060134423 5.20237965"></polygon>
    </defs>
    <g id="V2---Desktop" stroke="none" stroke-width="1" fill="none" fill-rule="evenodd">
        <g id="Music" transform="translate(-452.000000, -1246.000000)">
            <g id="Group-21" transform="translate(452.015929, 1246.228581)">
                <path d="M8.0325385,1.92724716 C8.73561493,1.92724716 11.8012914,1.70188718 15.5283643,4.47681791 C15.6953586,4.6012664 15.729635,4.83690691 15.6078854,5.00491237 L13.817289,7.48035511 C13.6886842,7.65810002 13.4375071,7.69408186 13.2628348,7.56043501 C12.9332335,7.30829155 12.371924,6.91113855 11.7127213,6.57864466 C10.6545419,6.04459832 9.24729224,5.59387836 8.0325385,5.59387836 C6.81778477,5.59387836 4.86951721,5.98535002 4.86951721,7.87209731 C4.86951721,9.39090994 6.22850581,9.96039704 10.4258502,10.9808746 C13.1561668,11.6810327 16.3430445,12.9742148 16.3430445,17.1037402 C16.3430445,20.9007718 13.1441016,23.2974874 8.73013072,23.2974874 C6.07083462,23.2974874 2.42437973,22.3018995 0.10866973,20.0006846 C-0.0317261867,19.8608153 -0.0352909268,19.6354553 0.0938623484,19.4855761 L2.10794049,17.1467561 C2.25107852,16.9803739 2.50609454,16.9641415 2.66760469,17.1132091 C3.43265275,17.8198601 5.66884162,19.6073192 8.71806544,19.6073192 C12.3502614,19.6073192 12.2057523,17.4475968 12.2057523,17.1275478 C12.2057523,16.4392935 11.700656,15.4780642 9.90868863,14.9794587 C8.11672121,14.4811236 3.61884186,13.6505652 1.93491349,11.7164734 C0.900590449,10.5060766 0.756355581,9.16527942 0.756355581,8.15670559 C0.756355581,5.87848664 2.24778799,1.92724716 8.0325385,1.92724716" id="Fill-1" fill="#FEFEFE"></path>
                <path d="M25.9080373,19.7958316 C23.6457984,19.7958316 21.726323,17.8571406 21.726323,15.0841036 C21.726323,13.3932274 22.8004066,10.4397401 25.8622441,10.4397401 C28.9243558,10.4397401 30.0897516,12.8746019 30.0897516,15.0841036 C30.0897516,17.2933348 28.8558031,19.7958316 25.9080373,19.7958316 M26.7707044,6.87185611 C23.5314525,6.87185611 21.7833588,9.22230929 21.7833588,9.22230929 L21.7833588,7.59365734 C21.7833588,7.38182437 21.6095092,7.21003135 21.3948022,7.21003135 L18.0702707,7.21003135 C17.8555637,7.21003135 17.6817141,7.38182437 17.6817141,7.59365734 L17.6817141,27.2805965 C17.6817141,27.4924295 17.8555637,27.6642225 18.0702707,27.6642225 L21.406319,27.6642225 C21.6207518,27.6642225 21.7948757,27.4924295 21.7948757,27.2805965 L21.7948757,21.1485325 C21.7948757,21.1485325 23.4173808,23.2974333 26.9448283,23.2974333 C29.7412297,23.2974333 34.2484323,21.0808975 34.2484323,15.1517387 C34.2484323,9.22230929 30.0096821,6.87185611 26.7707044,6.87185611" id="Fill-3" fill="#FEFEFE"></path>
                <path d="M43.8800857,19.7958316 C41.7437096,19.7958316 39.412918,18.031639 39.412918,15.1035825 C39.412918,12.175526 41.5150178,10.4397401 43.8800857,10.4397401 C45.6967321,10.4397401 48.278975,11.9220299 48.278975,15.1035825 C48.278975,18.2854057 46.0167361,19.7958316 43.8800857,19.7958316 M43.8458094,6.87185611 C38.6130452,6.87185611 35.3683091,11.1160906 35.3683091,15.1179211 C35.3683091,19.5028365 38.8187032,23.3355794 43.8800857,23.3355794 C48.9417424,23.3355794 52.3921366,19.3900213 52.3921366,15.1179211 C52.3921366,10.8455504 49.0788478,6.87185611 43.8458094,6.87185611" id="Fill-5" fill="#FEFEFE"></path>
                <path d="M62.8579393,10.3493797 L62.8579393,7.55415848 C62.8579393,7.34232551 62.6838154,7.17053249 62.4691084,7.17053249 L58.676225,7.17053249 L58.676225,3.38405198 C58.676225,3.17248955 58.5021011,3.00069653 58.2873941,3.00069653 L55.0201727,3.00069653 C54.8057399,3.00069653 54.631616,3.17248955 54.631616,3.38405198 L54.631616,7.17053249 L53.0321446,7.17053249 C52.8177117,7.17053249 52.6435879,7.34232551 52.6435879,7.55415848 L52.6435879,10.3493797 C52.6435879,10.5612127 52.8177117,10.7327352 53.0321446,10.7327352 L54.631616,10.7327352 L54.631616,18.6460358 C54.631616,20.4272724 55.4542483,23.245219 59.0417479,23.245219 C60.6919484,23.245219 62.1027628,22.6760024 62.6333607,22.4306225 C62.770466,22.3675866 62.8579393,22.2325871 62.8579393,22.0829783 L62.8579393,19.3459232 C62.8579393,19.0991906 62.5787927,18.9514756 62.3725862,19.0913449 C61.996369,19.3459232 61.3851532,19.6156518 60.4813545,19.6156518 C58.7675371,19.6156518 58.676225,18.465856 58.676225,17.6542354 L58.676225,10.7327352 L62.4691084,10.7327352 C62.6838154,10.7327352 62.8579393,10.5612127 62.8579393,10.3493797" id="Fill-7" fill="#FEFEFE"></path>
                <g id="Group-11" transform="translate(63.891111, 0.142304)">
                    <mask id="mask-2" fill="white">
                        <use xlink:href="#path-1"></use>
                    </mask>
                    <g id="Clip-10"></g>
                    <path d="M5.20646741,2.61861261 C5.20646741,3.99403894 4.07644481,5.10920561 2.68235722,5.10920561 C1.28826964,5.10920561 0.157972828,3.99403894 0.157972828,2.61861261 C0.157972828,1.24318628 1.28826964,0.128019618 2.68235722,0.128019618 C4.07644481,0.128019618 5.20646741,1.24318628 5.20646741,2.61861261" id="Fill-9" fill="#FEFEFE" mask="url(#mask-2)"></path>
                </g>
                <path d="M68.2047752,22.9746788 L64.9306985,22.9746788 C64.7159915,22.9746788 64.5421419,22.8031563 64.5421419,22.5913234 L64.5421419,7.55415848 C64.5421419,7.34232551 64.7159915,7.17053249 64.9306985,7.17053249 L68.2047752,7.17053249 C68.4194822,7.17053249 68.5933319,7.34232551 68.5933319,7.55415848 L68.5933319,22.5913234 C68.5933319,22.8031563 68.4194822,22.9746788 68.2047752,22.9746788" id="Fill-12" fill="#FEFEFE"></path>
                <path d="M72.2038651,10.7328704 L70.6274274,10.7328704 C70.4127204,10.7328704 70.2385965,10.5610774 70.2385965,10.349515 L70.2385965,7.55402321 C70.2385965,7.34246078 70.4127204,7.17066776 70.6274274,7.17066776 L72.2038651,7.17066776 L72.2038651,6.15614204 C72.2038651,5.47979156 72.318211,1.21878356 77.1624186,1.21878356 C79.5617629,1.21878356 80.3443604,1.74877179 80.3443604,1.74877179 L80.3443604,4.62326132 C80.3443604,4.910575 80.2415314,5.14729767 79.9330443,5.02907161 C79.6245571,4.910575 78.716371,4.67385234 77.9792925,4.67385234 C77.2424881,4.67385234 76.231473,5.09670665 76.231473,6.38177256 L76.231473,7.17066776 L82.1689589,7.17066776 C82.3296464,7.17066776 82.4736071,7.26806222 82.5314656,7.41577717 L86.6857588,18.0150008 L90.4166706,7.45067685 C90.4709644,7.29646894 90.6182155,7.19339313 90.7835646,7.19339313 L94.4330358,7.19339313 C94.6057886,7.19339313 94.7256187,7.36275129 94.6630987,7.52182892 C93.8072869,9.7067115 88.9556756,22.0906887 88.3310235,23.6625272 C87.6454965,25.387221 86.4801007,27.7374036 83.1380198,27.7374036 C81.1993496,27.7374036 79.9492227,27.0948706 79.4293191,26.7602124 C79.2664379,26.6552428 79.2063857,26.4499028 79.2886489,26.276216 L80.4789979,23.7580279 C80.5286301,23.6525173 80.6597028,23.6119362 80.760064,23.6730783 C81.1003595,23.8795005 81.8755534,24.2796294 82.7782553,24.2796294 C84.106258,24.2796294 84.6977307,22.7324101 84.6977307,22.7324101 L79.6075561,10.7328704 L76.2569746,10.7328704 L76.2569746,22.6195948 C76.2569746,22.8311572 76.0828508,23.0029503 75.8684179,23.0029503 L72.5841955,23.0029503 C72.3694884,23.0029503 72.1956388,22.8311572 72.1956388,22.6193243 L72.2038651,10.7328704 Z" id="Fill-14" fill="#FEFEFE"></path>
                <path d="M97.8350867,9.53710986 C98.119169,9.53710986 98.2823244,9.38750113 98.2823244,9.16701088 L98.2823244,9.15943575 C98.2823244,8.91243256 98.1079264,8.78554921 97.8235698,8.78554921 L97.243614,8.78554921 L97.243614,9.53710986 L97.8350867,9.53710986 Z M96.6598193,8.26557096 L97.8729278,8.26557096 C98.210207,8.26557096 98.4718041,8.35917787 98.6462021,8.53097089 C98.7940018,8.67706259 98.8735229,8.88267314 98.8735229,9.12940579 L98.8735229,9.13698092 C98.8735229,9.55956469 98.6423632,9.82523516 98.3050839,9.94860149 L98.9533182,10.8835884 L98.2710818,10.8835884 L97.7023687,10.0457254 L97.6946908,10.0457254 L97.243614,10.0457254 L97.243614,10.8835884 L96.6598193,10.8835884 L96.6598193,8.26557096 Z" id="Fill-16" fill="#FEFEFE"></path>
                <g id="Group-20" transform="translate(95.151139, 6.905809)">
                    <mask id="mask-4" fill="white">
                        <use xlink:href="#path-3"></use>
                    </mask>
                    <g id="Clip-19"></g>
                    <path d="M2.56559828,0.529068397 C1.33548874,0.529068397 0.334345198,1.51654009 0.334345198,2.73045393 C0.334345198,3.94436776 1.33548874,4.93183946 2.56559828,4.93183946 C3.79570781,4.93183946 4.79685136,3.94436776 4.79685136,2.73045393 C4.79685136,1.51654009 3.79570781,0.529068397 2.56559828,0.529068397 M2.56559828,5.20237965 C1.18412439,5.20237965 0.060134423,4.09343541 0.060134423,2.73045393 C0.060134423,1.36747245 1.18412439,0.258528206 2.56559828,0.258528206 C3.94707216,0.258528206 5.07106213,1.36747245 5.07106213,2.73045393 C5.07106213,4.09343541 3.94707216,5.20237965 2.56559828,5.20237965" id="Fill-18" fill="#FEFEFE" mask="url(#mask-4)"></path>
                </g>
            </g>
        </g>
    </g>
</svg>