<?xml version="1.0" encoding="UTF-8"?>
<svg width="21px" height="25px" viewBox="0 0 21 25" version="1.1" xmlns="http://www.w3.org/2000/svg" xmlns:xlink="http://www.w3.org/1999/xlink">
    <!-- Generator: Sketch 49.2 (51160) - http://www.bohemiancoding.com/sketch -->
    <title>arm</title>
    <desc>Created with Sketch.</desc>
    <defs></defs>
    <g id="Page-1" stroke="none" stroke-width="1" fill="none" fill-rule="evenodd">
        <g id="Landing" transform="translate(-762.000000, -731.000000)" fill="#FFFFFF" fill-rule="nonzero">
            <g id="arm" transform="translate(762.000000, 731.042187)">
                <path d="M6.04883832,24.5141211 C5.54775112,24.5141211 4.86770421,24.5141211 3.9371137,24.4739998 C0.823214683,24.3536358 0.178959714,20.5822326 0.0357919427,19.4588359 C-0.143167771,17.8941048 0.501087198,14.3233081 3.47181844,13.0795474 C6.01304638,12.0363933 7.98160323,13.7616097 8.59006625,14.3634294 C8.69744208,14.2430654 8.8764018,14.0825802 9.01956957,13.9622163 C10.2007037,13.1196687 11.0955022,13.1196687 12.0618847,13.2400327 C12.491388,13.280154 12.9208913,13.5208818 13.2788107,13.7616097 C13.2072269,13.5208818 13.135643,13.280154 13.099851,13.0394261 L13.099851,12.9993048 L13.099851,12.9591835 C13.099851,11.5549376 13.099851,7.82365566 12.9566833,7.10147206 C12.8493074,6.41940978 11.6681733,5.57686224 11.3818378,5.53674093 C11.3102539,5.53674093 11.23867,5.53674093 11.1312942,5.61698355 C10.9881264,5.69722618 10.8449586,5.7774688 10.5586231,5.7774688 C10.2007037,5.7774688 9.84278425,5.61698355 9.52065676,5.49661962 C9.44907288,5.45649831 9.37748899,5.416377 9.30590511,5.416377 C9.30590511,5.416377 9.27011317,5.416377 9.27011317,5.416377 C9.27011317,5.416377 9.23432122,5.45649831 9.23432122,5.45649831 C9.12694539,5.53674093 8.94798568,5.69722618 8.6258582,5.85771142 C7.94581128,6.17868191 7.6236838,6.05831798 7.40893214,5.89783273 L7.33734826,5.85771142 C6.97942883,5.65710487 6.6215094,5.45649831 6.3709658,4.89479995 C6.08463026,4.25285898 6.22779803,3.37019013 6.29938192,3.08934095 C6.3709658,2.84861309 6.97942883,1.84558031 7.15838854,1.56473113 C8.01739517,0.200606555 8.124771,0.200606555 8.26793877,0.160485244 C8.48269043,0.120363933 8.66165014,0.200606555 9.62803259,0.561698355 C9.87857619,0.641940978 10.2364956,0.762304911 10.630207,0.922790155 C13.0282672,1.805459 13.2788107,2.08630818 14.7820723,3.85164587 C15.0326159,4.13249504 15.3189515,4.45346553 15.641079,4.85467864 C17.6812197,7.14159338 19.9361121,13.2400327 20.8309107,15.727554 L20.8667026,15.8479179 C20.9740784,16.1688884 21.224622,17.2521638 20.6877429,17.9743474 C17.8243875,21.9864785 13.3861866,23.9123014 12.0618847,24.2733932 C11.4892136,24.4338785 10.2364956,24.4739998 9.05536151,24.5141211 C8.33952265,24.5542424 7.6236838,24.5542424 7.26576437,24.5943637 L7.22997243,24.5943637 C7.15838854,24.4338785 6.872053,24.5141211 6.04883832,24.5141211 Z M5.11824781,13.5208818 C4.6887445,13.5208818 4.22344924,13.6011245 3.72236204,13.801731 C0.859006625,14.965249 0.644254969,18.4558031 0.751630797,19.338472 C0.894798568,20.5822326 1.46746965,23.5512096 3.97290564,23.6715735 C6.47834163,23.7919375 7.05101272,23.7116949 7.22997243,23.6715735 L7.30155632,23.6715735 C7.69526769,23.6314522 8.3753146,23.5913309 9.16273734,23.5913309 C10.2364956,23.5512096 11.5607975,23.5110883 12.0260928,23.3907244 C12.0618847,23.3907244 17.0727567,21.8661145 20.2582396,17.3725277 C20.5087832,17.0114359 20.4371993,16.3293736 20.3298235,16.0485244 L20.2940315,15.9281605 C19.4350249,13.4807605 17.1801325,7.50268518 15.2473676,5.29601307 C14.9252401,4.89479995 14.6389046,4.57382947 14.388361,4.29298029 C12.9208913,2.60788522 12.7419316,2.36715735 10.5228312,1.56473113 C10.1291198,1.40424589 9.77120036,1.28388196 9.52065676,1.20363933 C9.05536151,1.04315409 8.73323402,0.922790155 8.55427431,0.882668844 C8.23214683,1.32400327 7.19418049,2.96897702 7.08680466,3.2498262 C7.01522077,3.49055407 6.97942883,4.09237373 7.1225966,4.45346553 C7.26576437,4.77443602 7.44472409,4.89479995 7.76685157,5.0552852 L7.91001934,5.13552782 C8.01739517,5.21577044 8.26793877,5.09540651 8.41110654,5.01516389 C8.66165014,4.89479995 8.76902597,4.81455733 8.8764018,4.73431471 C9.05536151,4.57382947 9.23432122,4.45346553 9.59224065,4.57382947 C9.66382453,4.61395078 9.73540842,4.65407209 9.84278425,4.65407209 C10.0933278,4.77443602 10.4154553,4.89479995 10.630207,4.89479995 C10.7375828,4.89479995 10.8091667,4.85467864 10.9165425,4.81455733 C11.0597103,4.73431471 11.23867,4.65407209 11.4892136,4.6941934 C11.9903008,4.73431471 13.4935624,5.81759011 13.7083141,6.90086551 C13.8872738,7.82365566 13.8514818,12.1567573 13.8514818,12.8789409 C14.0304415,13.6412458 14.2809851,14.4837933 14.3167771,14.6041572 L14.4241529,14.8850064 L14.2451932,15.1257343 C14.0304415,15.3664622 13.7798979,15.1658556 13.6367302,15.0053704 C13.3503946,14.7646425 12.6345558,14.1227015 12.0618847,14.0424589 C11.1670861,13.9622163 10.4512473,13.922095 9.48486482,14.6442786 C9.19852928,14.8448851 8.94798568,15.2059769 8.94798568,15.2059769 L8.66165014,15.5670687 L8.30373071,15.085613 C8.124771,14.965249 6.90784495,13.5208818 5.11824781,13.5208818 Z" id="Shape"></path>
            </g>
        </g>
    </g>
</svg>