<?xml version="1.0" encoding="UTF-8"?>
<svg width="18px" height="25px" viewBox="0 0 18 25" version="1.1" xmlns="http://www.w3.org/2000/svg" xmlns:xlink="http://www.w3.org/1999/xlink">
    <!-- Generator: Sketch 49.2 (51160) - http://www.bohemiancoding.com/sketch -->
    <title>Group 3</title>
    <desc>Created with Sketch.</desc>
    <defs></defs>
    <g id="Page-1" stroke="none" stroke-width="1" fill="none" fill-rule="evenodd">
        <g id="Landing" transform="translate(-122.000000, -731.000000)" fill="#FFFFFF" fill-rule="nonzero">
            <g id="Group-3" transform="translate(122.000000, 731.042187)">
                <path d="M8.19605089,23.9117843 L9.10775199,24.6353961 L9.27272648,24.7722957 L9.44059525,24.6386556 L10.3522964,23.9150439 C12.0367727,22.5786437 13.7820291,21.1868318 15.142345,19.7363487 C17.0612587,17.6730773 17.9555941,15.7532244 17.9555941,13.6899529 L17.9555941,3.58546385 L9.27272648,0 L0.589858836,3.58546385 L0.589858836,13.6899529 C0.589858836,15.7499648 1.4841942,17.6698177 3.40310795,19.7330892 C4.76342388,21.1868318 6.50868028,22.5786437 8.19605089,23.9117843 Z M1.16871668,13.6899529 L1.16871668,4.04179562 L9.27272648,0.697535693 L17.3767363,4.04179562 L17.3767363,13.6899529 C17.3767363,15.5576536 16.5402867,17.3275689 14.7429331,19.2604599 C13.4115601,20.6913859 11.6865637,22.0571217 10.0194531,23.3739648 L9.27272648,23.9704556 L8.52599986,23.3804838 C6.85599498,22.0766788 5.13099861,20.6979049 3.79962557,19.2669789 C2.00516626,17.3340879 1.16871668,15.5641726 1.16871668,13.6899529 Z" id="Shape"></path>
                <polygon id="Shape" points="13.9962065 8.2889405 13.591006 7.82283021 7.74164748 14.2473295 5.04127565 10.7009798 4.60134369 11.1247165 7.70402172 15.1991072"></polygon>
            </g>
        </g>
    </g>
</svg>