<?xml version="1.0" encoding="UTF-8"?>
<svg width="36px" height="28px" viewBox="0 0 36 28" version="1.1" xmlns="http://www.w3.org/2000/svg" xmlns:xlink="http://www.w3.org/1999/xlink">
    <!-- Generator: Sketch 51.1 (57501) - http://www.bohemiancoding.com/sketch -->
    <title>Group 3</title>
    <desc>Created with Sketch.</desc>
    <defs></defs>
    <g id="V2---Desktop" stroke="none" stroke-width="1" fill="none" fill-rule="evenodd">
        <g id="Music" transform="translate(-374.000000, -1244.000000)" fill="#FFFFFF">
            <g id="Group-3" transform="translate(374.653149, 1242.832673)">
                <path d="M10.9006056,29.1803454 C23.9807777,29.1803454 31.1349414,18.4885802 31.1349414,9.21672956 C31.1349414,8.91304841 31.1349414,8.61073519 31.1142826,8.30978991 C32.506044,7.31653368 33.7074399,6.08676181 34.6623174,4.6779275 C33.3644216,5.24534615 31.9874957,5.61756075 30.57771,5.78184952 C32.0622277,4.90500439 33.1735016,3.52585423 33.704251,1.90102328 C32.3081915,2.71836332 30.7811084,3.29426316 29.1883056,3.6041 C26.4951822,0.778634164 21.9901901,0.642251233 19.1263895,3.2994613 C17.2794425,5.01307111 16.4957969,7.56672864 17.0691116,10.0032911 C11.3510771,9.72053932 6.02361753,7.05580562 2.41249729,2.67253756 C0.524926135,5.87856239 1.48909316,9.97989944 4.6142477,12.0387756 C3.48245371,12.0056716 2.37547794,11.7044527 1.3864927,11.1605625 L1.3864927,11.2494782 C1.38746324,14.5894236 3.77361718,17.4660502 7.09191015,18.1274458 C6.04496951,18.4092401 4.94645135,18.4504149 3.88079306,18.247824 C4.81237751,21.1061202 7.48234649,23.0640429 10.5248661,23.1204017 C8.00657938,25.0731262 4.89570572,26.1331376 1.69290758,26.1298545 C1.12707991,26.1287602 0.561806841,26.0949723 0,26.0286275 C3.25215727,28.0877772 7.03631179,29.179935 10.9006056,29.1748737" id="Fill-1"></path>
            </g>
        </g>
    </g>
</svg>